<?xml version="1.0" encoding="UTF-8"?>
<svg id="Layer_1" xmlns="http://www.w3.org/2000/svg" version="1.1" viewBox="0 0 512 512">
  <!-- Generator: Adobe Illustrator 30.0.0, SVG Export Plug-In . SVG Version: 2.1.1 Build 123)  -->
  <defs>
    <style>
      .st0 {
        fill: #6cc077;
      }

      .st1 {
        fill: #cc3432;
      }

      .st2 {
        fill: #a5d5df;
      }
    </style>
  </defs>
  <g id="_x23_a5d5dfff">
    <path class="st2" d="M253.3,0h5.3c31.5.4,63,6.4,92.2,18.2,32.2,12.7,61.5,32.4,86.2,56.6-25.4,25.5-50.9,50.9-76.3,76.3-9.8-21.3-26.5-39.4-46.8-51.1-23-13.4-50.7-18.3-76.9-13.6-25.5,4.3-49.3,17.7-66.4,37.2-19.7,22-30.1,51.8-28.7,81.3.8,15.9,5.4,31.3,11,46.1,9.8,24.6,23.4,47.5,38.7,69-38.9,39.1-77.9,78-116.9,117-27.3-27.8-48.8-61.5-61.2-98.5C4.8,312.9.4,285.8,0,258.7v-5.4c.5-55.5,19.6-110.7,53.9-154.4,23.3-30,53.3-54.7,87.3-71.7C175.8,9.6,214.5.5,253.3,0Z"/>
    <path class="st2" d="M369.7,179c33.4-21.8,69.1-40,106.2-54.6,1.8,3.3,4,6.4,5.4,9.9,0,.5-.3,1.5-.4,2-38.6,14.7-75.3,34.1-109.7,56.9,0-4.8-1-9.5-1.6-14.2Z"/>
    <path class="st2" d="M249.6,153.8c17.2-2.9,35.9,5.9,43.9,21.6,9.2,16.2,4.6,38.5-10.1,49.9-12.7,10.9-32.2,12.9-46.9,5-12.9-6.3-21.9-20-22.4-34.4-1.4-20.5,15.3-39.6,35.5-42.2Z"/>
    <path class="st2" d="M177.2,370.4c8.5-11.8,16.5-24,25.8-35.2,2.7,3.4,5.4,6.9,8.1,10.3-10,12.4-18.8,25.7-27.8,38.7-19.5,29.9-37.9,60.8-52,93.7-.5.2-1.5.5-2,.6-3.5-1.5-6.7-3.7-9.9-5.7,15.9-35.9,36-69.8,57.8-102.4Z"/>
  </g>
  <g id="_x23_6cc077ff">
    <path class="st0" d="M360.8,151.2c25.4-25.5,50.9-50.9,76.3-76.3,15,14.8,27.9,31.6,38.8,49.5-37.1,14.6-72.8,32.8-106.2,54.6-1.8-9.6-4.7-19-8.9-27.8Z"/>
    <path class="st0" d="M481.3,134.3v-.2c15,27.5,24.8,57.9,28.7,89,1,6.1,1,12.3,2,18.5v28.1c-1,8.5-1.4,17.1-2.8,25.5-6.5,42.4-23.8,83-50.1,117-22.8,29.7-52.2,54.3-85.4,71.5-28.7,14.9-60.4,24.2-92.6,27.4-3.9,0-7.6.7-11.5,1h-27.9c-6.2-1-12.5-.9-18.7-2-26.5-3.3-52.5-11-76.7-22.4-5.5-2.5-10.7-5.6-16.2-8.1-.2-.3-.7-.8-.9-1.1.5-.2,1.5-.5,2-.6,14.1-32.9,32.5-63.7,52-93.7,9.1-13,17.8-26.3,27.8-38.7,11.6,14.1,23.8,27.8,37.4,40,3.6,3,7.1,6.4,11.5,8,4.3-1.8,7.7-5.2,11-8.5,7.8-7.6,14.6-16.1,21.5-24.6,13-15.6,24.6-32.4,35.5-49.5,13-20.8,24.8-42.4,33.6-65.4,5.9-16.8,11.1-34.5,9.6-52.4,34.4-22.8,71.1-42.2,109.7-56.9,0-.5.3-1.5.4-2Z"/>
    <path class="st0" d="M191.8,320.1c3.6,5.1,7.3,10.2,11.2,15.1-9.3,11.2-17.3,23.4-25.8,35.2-21.9,32.6-42,66.4-57.8,102.4-16.1-10.2-31.1-22.1-44.5-35.7,39-39,78-77.9,116.9-117Z"/>
  </g>
  <g id="_x23_cc3432ff">
    <path class="st1" d="M237.1,86.5c26.2-4.6,53.9.3,76.9,13.6,20.3,11.7,37,29.8,46.8,51.1,4.2,8.8,7.1,18.2,8.9,27.8.6,4.7,1.5,9.4,1.6,14.2,1.5,18-3.7,35.7-9.6,52.4-8.8,22.9-20.6,44.6-33.6,65.4-11,17.1-22.5,33.9-35.5,49.5-6.9,8.5-13.7,17-21.5,24.6-3.3,3.2-6.7,6.6-11,8.5-4.4-1.7-7.9-5-11.5-8-13.6-12.2-25.8-26-37.4-40-2.8-3.4-5.4-6.8-8.1-10.3-3.9-4.9-7.6-10-11.2-15.1-15.4-21.5-28.9-44.4-38.7-69-5.6-14.8-10.2-30.2-11-46.1-1.5-29.5,9-59.3,28.7-81.3,17-19.4,40.9-32.8,66.4-37.2M249.6,153.8c-20.2,2.6-36.8,21.7-35.5,42.2.5,14.4,9.6,28,22.4,34.4,14.8,7.9,34.2,5.9,46.9-5,14.6-11.5,19.3-33.7,10.1-49.9-8-15.7-26.7-24.5-43.9-21.6Z"/>
  </g>
</svg>