<svg xmlns="http://www.w3.org/2000/svg" viewBox="0 0 40 40" fill="none">
  <circle cx="20" cy="20" r="20" fill="#FF0000"/>
  <path fill="#FFFFFF" d="M27.4 15.2c-.34-1.26-1.33-2.25-2.59-2.59C23.4 12.25 20 12.25 20 12.25s-3.4 0-4.81.36a3.33 3.33 0 0 0-2.59 2.59c-.35 1.41-.35 4.35-.35 4.35s0 2.94.35 4.35c.34 1.26 1.33 2.25 2.59 2.59 1.41.36 4.81.36 4.81.36s3.4 0 4.81-.36a3.33 3.33 0 0 0 2.59-2.59c.35-1.41.35-4.35.35-4.35s0-2.94-.35-4.35z"/>
  <path fill="#FF0000" d="m18.35 23.05 5-3.46-5-3.47v6.93z"/>
</svg>
