<?xml version="1.0" encoding="UTF-8"?>
<svg id="Layer_1" xmlns="http://www.w3.org/2000/svg" version="1.1" viewBox="0 0 350 350">
  <!-- Generator: Adobe Illustrator 30.0.0, SVG Export Plug-In . SVG Version: 2.1.1 Build 123)  -->
  <g id="_x23_13181bff">
    <path d="M167.19,41.9c37.13-2.51,75.73,4.26,107.74,23.92,21.62,13.46,40.37,33.06,48.94,57.41,7.83,22.26,8.45,47.22.18,69.46-8.9,26.02-29.19,46.78-52.61,60.47-15.57,9.2-33.02,14.65-50.67,18.18-31.41,6.02-64.23,4.84-95-3.95-17.51,20.49-42.47,33.95-68.88,38.78-5.92,1.15-11.9,1.89-17.88,2.52,12-6.98,22.88-16.28,30.19-28.23,6.1-10,11.32-21.04,12.58-32.8-22.46-12.54-42.7-30.67-53.45-54.43-8.38-17.78-10.97-38.52-5.33-57.52,6.93-26.15,26.07-47.32,48.39-61.75,28.54-18.58,61.94-29.3,95.8-32.05M129.63,140.26c-4.46.88-8.44,3.92-10.13,8.19-3.57,7.36.54,17.21,8.25,19.86,7.29,2.86,16.19-1.77,18.18-9.3,3.53-9.71-6.14-21.06-16.31-18.75M167.82,140.53c-3.19,1.25-6.39,3.08-8.09,6.17-4.62,6.78-1.94,17.4,5.59,20.87,7.43,4.21,17.69-.45,19.99-8.55,3.9-10.19-7.1-21.87-17.49-18.49M207.05,140.46c-3.82,1.4-7.52,4-8.95,7.99-3.71,7.4.37,17.28,8.24,19.84,8.78,3.54,19.31-3.65,19.31-13.07.75-9.56-9.54-17.42-18.6-14.76M247.73,140.35c-4.28,1.18-7.99,4.33-9.55,8.51-3.32,7.23.88,16.35,8.15,19.18,8.15,3.74,18.35-2.51,19.21-11.34,2.09-9.8-8.24-19.13-17.8-16.36M86.08,141.27c-3.74,1.67-6.7,4.96-7.86,8.9-2.95,8.42,3.69,18.85,12.83,18.96,8.82.83,16.47-7.79,15.11-16.41-.66-9.26-11.81-15.55-20.09-11.44Z"/>
  </g>
</svg>