<?xml version="1.0" encoding="UTF-8"?>
<svg id="Layer_1" xmlns="http://www.w3.org/2000/svg" version="1.1" viewBox="0 0 512 512">
  <!-- Generator: Adobe Illustrator 30.0.0, SVG Export Plug-In . SVG Version: 2.1.1 Build 123)  -->
  <g id="_x23_000000ff">
    <path d="M216.11,16h3.84c5.13.42,10.27.5,15.4.97,67.27,7.48,129.55,53.84,153.6,117.5,7.36,19.55,10.63,40.71,9.08,61.57-2.03,49.65-26.68,98.11-66.44,128.1-32.53,25.24-74.16,37.26-115.06,36.77-16.22-.7-32.46-1.47-48.53-3.84-28.16,16.33-56.34,32.62-84.51,48.95-.02-28.36,0-56.73,0-85.09-9.78-8.43-18.78-17.79-26.47-28.18-17.45-23.21-28.13-51.17-31.83-79.89-2.37-18.69-2.47-37.82,1.36-56.33,2.71-13.88,7.79-27.23,14.14-39.83,22.18-43.12,63.3-74.82,109.07-89.59,21.33-7.32,43.87-10.45,66.34-11.1M116.68,166.49c-6.35,1.2-12.03,5.32-15.2,10.94-3.52,6.1-3.83,13.88-.95,20.3,2.72,6.1,8.33,10.85,14.81,12.48,7.33,1.96,15.57-.12,21.05-5.38,6.19-5.67,8.57-14.97,6.04-22.94-3.05-10.71-14.87-17.78-25.75-15.39M206.69,166.49c-6.37,1.2-12.07,5.34-15.22,10.99-3.71,6.46-3.83,14.78-.38,21.37,3.42,6.69,10.43,11.42,17.95,11.98,6.97.68,14.13-2.18,18.74-7.43,5.18-5.69,6.96-14.17,4.66-21.49-3.03-10.72-14.86-17.81-25.75-15.42M296.71,166.48c-6.38,1.2-12.1,5.36-15.26,11.03-3.83,6.67-3.81,15.35,0,22.03,3.54,6.34,10.33,10.75,17.59,11.3,6.98.68,14.15-2.18,18.76-7.45,5.18-5.72,6.95-14.22,4.61-21.56-3.07-10.66-14.86-17.7-25.71-15.34Z"/>
    <path d="M427.75,153.09c6.03,5.7,12.56,10.91,17.89,17.32,15.76,17.03,28.18,37.29,35.36,59.42,11.66,35.25,9.52,74.77-5.81,108.58-13.06,29.46-35.26,54.31-61.68,72.51-.09,28.36.14,56.73-.12,85.09h-.49c-2.62-2.35-5.83-3.82-8.74-5.76-24.97-15.32-49.86-30.76-74.86-46.03-33.32,5.21-68.18,3.96-100.13-7.49-26.78-9.36-50.33-26.16-70.63-45.7,15.6-.07,31.2.05,46.81-.06,32.13-.2,64.4-5.47,94.44-17.04,38.63-14.69,73.4-40.59,96.4-75.16,16.61-24.78,26.96-53.59,30.58-83.17,2.1-15.5,1.68-31.17,1.72-46.77-.02-5.25-.51-10.49-.76-15.73Z"/>
  </g>
</svg>