<?xml version="1.0" encoding="UTF-8"?>
<svg id="Layer_1" xmlns="http://www.w3.org/2000/svg" version="1.1" viewBox="0 0 980 980">
  <!-- Generator: Adobe Illustrator 30.0.0, SVG Export Plug-In . SVG Version: 2.1.1 Build 123)  -->
  <g id="_x23_000000ff">
    <path d="M76.95,90.83c15.29-19.54,39.48-31.85,64.3-32.48,12.59-1.04,25.21.79,37.81-.25,9.23-.18,18.47.88,27.69.04,21.39.84,42.81-.88,64.2.29,16.35-.59,32.73.57,49.09-.34,10.47.82,20.98-.65,31.47.2,5.88.52,11.74-.6,17.62-.04,9.24.72,18.47-.74,27.71-.01,18.88.16,37.75-.39,56.63.24,16.78-.87,33.56.11,50.34-.42,16.36.29,32.73.49,49.11.28,6.71-.76,13.43.47,20.15-.15,10.07-.52,20.13.54,30.2-.11,11.32.99,22.66-.65,33.99.25,12.26-.18,24.58-.67,36.82.58,22.56,2.98,43.81,15.22,57.45,33.47,11.18,14.65,17.59,32.98,17.45,51.45-.03,57.49-.01,114.99-.01,172.48.42,17.11-4.59,34.33-14.12,48.54-15.11,23.31-42.08,38.38-69.88,38.86h-229.11c-62.55.11-125.09-.24-187.63.18-.92,3.56-2.95,6.68-4.54,9.97-9.94,19.85-19.86,39.72-29.77,59.58-9.91,19.94-28.19,35.61-49.59,41.91-22,6.57-46.84,3.85-66.45-8.31-18.97-11.24-32.86-30.56-37.7-52.06-1.81-7.05-1.8-14.38-2.14-21.59.01-95.67-.04-191.34.03-287-.16-19.95,6.22-40.01,18.87-55.55M139.21,116.46c-13.43,2.25-23.67,15.12-23.44,28.64.04,97.37-.03,194.74.04,292.11.06,13.67,13.22,25.53,26.83,23.79,8.6-.6,16.25-6.41,20-14.04,12.35-24.51,24.38-49.19,36.75-73.7,3.15-6.02,5.66-12.49,10.06-17.75,5.66-6.22,14.1-9.69,22.48-9.58,143.53.04,287.06,0,430.61.03,14.68.48,28.52-12.31,28.65-27.1-.04-58.76.03-117.52-.03-176.27-.34-14.28-13.33-26.3-27.39-26.74-172.91-.05-345.82,0-518.74-.03-1.96.01-3.9.24-5.82.64Z"/>
    <path d="M246.42,202.72c4.77-.87,9.64-.49,14.46-.54,5.21.09,10.62-.45,15.57,1.52,8.82,2.97,15.94,10.54,18.29,19.55,3.24,11.19-1.11,23.89-10.51,30.77-8.32,6.8-19.57,5.98-29.63,5.92-8.7.26-17.67-2.95-23.44-9.62-10.16-10.44-9.82-28.65.21-39.06,3.94-4.36,9.35-7.24,15.04-8.53Z"/>
    <path d="M389.89,202.82c6.86-1.22,13.87-.4,20.81-.63,14.35-.63,27.86,11.57,28.75,25.88,1.49,12.16-5.73,24.72-17.09,29.34-7.6,3.55-16.16,2.25-24.27,2.53-9.21.28-18.73-3.68-24.35-11.13-6.04-7.72-8.09-18.61-4.36-27.79,3.13-9.08,11.2-16.04,20.51-18.2Z"/>
    <path d="M534.57,202.66c4.39-.76,8.89-.39,13.32-.47,5.69.08,11.62-.55,17.01,1.72,11.4,4.05,19.27,15.99,18.73,28.03-.21,14.36-12.55,27.08-26.88,27.83-9.58-.09-19.8,1.54-28.75-2.74-9.93-4.62-16.88-15.31-16.33-26.35-.5-13.26,10.01-25.62,22.9-28.03Z"/>
    <path d="M240.76,507.45c14.02-27.2,43.47-45.92,74.19-46.11,173.33-.03,346.65,0,519.99-.01,20.39-.48,40.7,7.12,56.24,20.25,18.98,15.89,30.56,40.28,30.58,65.08.43,25.16-.04,50.37.16,75.54-.03,61.27.04,122.52-.03,183.79-.67,19.44,2.14,39.48-3.85,58.33-6,19.21-19.3,35.95-36.64,46.14-26.36,15.92-61.69,15.02-87.22-2.2-11.48-7.59-20.96-18.15-27.38-30.32-12.21-23.68-23.55-47.81-35.99-71.36-58.88.39-117.75.05-176.63.16h-226.59c-5.9-.01-11.82.1-17.71-.26-19.99-1.72-39.4-10.59-53.49-24.95-16.2-15.81-25.79-38.37-25.42-61.07.04-57.93.03-115.87,0-173.82-.08-13.6,3.39-27.19,9.77-39.19M312.9,519.27c-13.15,1.75-24.23,13.97-24.08,27.34-.03,58.37-.01,116.73-.01,175.1.06,14.98,14.1,27.83,28.95,27.27,143.86.06,287.73.01,431.59.04,10.69-.04,20.95,6.47,25.58,16.09,12.74,25.43,25.43,50.89,38.17,76.33,3.94,8.51,8.55,18.14,18.22,21.22,15.02,6.21,33.03-6.56,32.87-22.62.03-97.81.03-195.62,0-293.43-.28-15.24-14.1-28.08-29.23-27.86-171.64-.09-343.29,0-514.93-.05-2.39-.01-4.76.18-7.11.57Z"/>
    <path d="M420.02,605.55c6.52-.87,13.13-.38,19.69-.45,10.86-.11,21.36,6.55,25.98,16.34,6.26,12.87,1.5,30.1-11.1,37.21-8.59,5.6-19.13,3.95-28.81,4.19-7.98.13-16.1-3.11-21.48-9.06-7.39-7.46-9.98-19.32-6.34-29.17,3.24-9.69,11.96-17.33,22.07-19.06Z"/>
    <path d="M565.99,605.27c10.32.13,21.48-1.96,31,3.1,7.35,3.91,12.89,11.12,14.72,19.26,3.32,13.33-4.62,28.35-17.5,33.14-7.5,3.13-15.76,1.74-23.65,2.06-11.2.54-22.44-5.89-27.28-16.08-2.95-5.5-3.11-11.96-2.47-18.03,1.95-12.27,12.81-22.34,25.18-23.46Z"/>
    <path d="M708.26,605.41c6.95-.62,13.96-.29,20.93-.26,15.08.49,27.98,14.61,27.14,29.67.03,11.15-7.6,21.4-17.64,25.79-7.4,3.15-15.57,2-23.36,2.23-7.24.28-14.74-1.7-20.37-6.39-7.16-5.7-11.34-14.97-10.67-24.13.38-13.19,11.05-24.8,23.97-26.9Z"/>
  </g>
</svg>