<?xml version="1.0" encoding="UTF-8"?>
<svg id="Layer_1" xmlns="http://www.w3.org/2000/svg" version="1.1" viewBox="0 0 800 800">
  <!-- Generator: Adobe Illustrator 30.0.0, SVG Export Plug-In . SVG Version: 2.1.1 Build 123)  -->
  <path d="M100,733.33c-8.7,0-17.22-3.41-23.57-9.76-8.93-8.93-12.04-22.13-8.05-34.11l41.65-124.96c-28.42-50-43.36-106.54-43.36-164.5,0-82.57,30.42-161.8,85.66-223.09,54.82-60.82,129.64-99.25,210.68-108.21,18.3-2.03,34.77,11.17,36.79,29.47,2.02,18.3-11.17,34.77-29.47,36.79-135.11,14.94-237,128.88-237,265.04,0,50.72,14.29,100.04,41.31,142.64,5.37,8.46,6.65,18.89,3.48,28.4l-25.42,76.25,76.25-25.42c9.51-3.17,19.94-1.89,28.4,3.48,42.6,27.03,91.93,41.31,142.64,41.31,136.16,0,250.1-101.89,265.04-237,2.02-18.3,18.5-31.48,36.79-29.47,18.3,2.02,31.49,18.5,29.47,36.79-8.96,81.04-47.39,155.87-108.21,210.68-61.29,55.24-140.52,85.66-223.09,85.66-57.97,0-114.5-14.95-164.5-43.36l-124.95,41.65c-3.45,1.15-7.01,1.71-10.54,1.71ZM683.33,334.49c-13.78,0-26.68-8.61-31.47-22.36-26.42-75.73-87.34-136.9-162.97-163.63-17.36-6.14-26.46-25.18-20.32-42.54,6.13-17.36,25.18-26.46,42.54-20.32,46.7,16.5,89.94,43.87,125.06,79.12,35.13,35.27,62.32,78.63,78.64,125.4,6.06,17.38-3.11,36.39-20.49,42.45-3.63,1.27-7.34,1.87-10.98,1.87Z"/>
  <path d="M400,600c-110.28,0-200-89.72-200-200,0-18.41,14.92-33.33,33.33-33.33s33.33,14.92,33.33,33.33c0,73.52,59.81,133.33,133.33,133.33,18.41,0,33.33,14.92,33.33,33.33s-14.92,33.33-33.33,33.33ZM533.31,533.35c-6.97,0-14-2.18-20-6.68-14.72-11.06-17.69-31.95-6.63-46.67,17.44-23.21,26.65-50.87,26.65-79.99,0-73.52-59.81-133.33-133.33-133.33-29.13,0-56.79,9.22-79.99,26.65-14.72,11.06-35.61,8.09-46.67-6.63-11.06-14.72-8.09-35.61,6.63-46.67,34.84-26.18,76.35-40.02,120.04-40.02,110.28,0,200,89.72,200,200,0,43.68-13.84,85.19-40.02,120.04-6.55,8.72-16.55,13.31-26.68,13.31Z"/>
  <path d="M400,466.67c-36.76,0-66.67-29.91-66.67-66.67s29.91-66.67,66.67-66.67,66.67,29.91,66.67,66.67-29.91,66.67-66.67,66.67ZM400,400s-.04,0-.04,0h.04Z"/>
</svg>