<?xml version="1.0" encoding="UTF-8"?>
<svg id="Layer_1" xmlns="http://www.w3.org/2000/svg" version="1.1" viewBox="0 0 980 980">
  <!-- Generator: Adobe Illustrator 30.0.0, SVG Export Plug-In . SVG Version: 2.1.1 Build 123)  -->
  <g id="_x23_000000ff">
    <path d="M68.12,69.82c11.81-12.28,28.86-18.61,45.74-18.8,169.31-.03,338.64,0,507.95-.02,16.55-.02,33.4,5.8,45.26,17.6,11.97,11.12,18.71,27.51,18.39,43.81.05,31.58-.05,63.18.03,94.76l.96.96c58.81.29,117.63-.02,176.45.16,15.67.53,31.16,6.57,42.83,17.08,14.67,12.57,22.98,31.68,23.32,50.88v392.21c-.19,10.88.64,21.82-1.06,32.62-3.94,29.19-29.22,53.98-58.58,56.92-9.9,1.4-20.01.39-29.81,2.52-13.44,2.35-26.44,6.89-38.44,13.34-93.66,50.88-187.28,101.86-280.96,152.71-8.76,4.55-20.72,1.85-25.99-6.7-4.39-6.56-4.27-15.62.37-22,37.12-46.45,75.07-92.25,111.92-138.92-110.09-.45-220.18-.03-330.27-.21-16.15-.31-32.45-5.87-44.52-16.81-14.29-12.23-22.87-30.62-23.5-49.37-.18-47.91.18-95.8-.18-143.71-14.56-7.36-29.01-14.96-43.54-22.42-13.71-6.81-28.74-11.31-44.08-11.92-9.13-.82-18.5-.47-27.24-3.68-24.12-7.25-41.95-30.87-42.2-56.11-.08-114.12,0-228.25-.03-342.38-.02-15.7,6.04-31.37,17.18-42.52M90.57,110.74c-.03,114.12-.02,228.26-.02,342.4-.61,11.7,10.35,21.42,21.68,21.42,21.71-.13,43.46,4.4,63.26,13.31,12.33,5.77,24.2,12.39,36.4,18.4,42.07,22.08,84.55,43.39,126.56,65.57-18.02-21.41-36.22-42.65-54.35-63.95-5.17-5.77-7.14-14.61-3.68-21.71,2.94-7.17,10.64-11.81,18.31-11.57,105.01-.02,210.02-.02,315.01,0,5.77-.18,11.75.74,17.29-1.33,7.44-2.31,13.92-8.89,14.61-16.87.8-5.35.42-10.77.47-16.15-.08-109.32.18-218.65-.13-327.97.56-12.05-10.77-22.15-22.5-21.62-169.89-.1-339.76-.06-509.66-.02-11.31-.63-23.08,8.32-23.26,20.09M685.89,247.91c-1,22.82-.14,45.74-.43,68.59-.05,46.61.11,93.2-.06,139.8-.61,27.31-22.53,51.56-49.15,56.44-25.57,3.84-51.48.03-77.14,1.7-23.05-.45-46.06-.45-69.11,0-21.42-1.45-42.86.08-64.29-.05-10.72-1.27-21.44.76-32.14-.47-17.16.34-34.42-.9-51.52.77,30.36,35.9,60.88,71.69,91.46,107.4,7.62,8.42,6.07,23.56-3.73,29.65-7.04,5.05-16.63,3.74-23.67-.55-30.23-15.89-60.67-31.37-90.98-47.06-22.39-11.33-44.39-23.45-67.07-34.14-.34,40.26-.08,80.53-.14,120.79-.47,15.17,13.31,28.8,28.46,28.35,124.26.06,248.53-.03,372.79.03,9.71-.08,18.74,8.55,18.87,18.31.27,4.34-.63,8.87-3.15,12.5-24.97,31.58-51.07,62.32-75.6,94.26,61.68-34.18,123.88-67.47,185.75-101.28,26.12-15.12,56.04-24.11,86.34-23.85,14.95.14,28.19-13.27,28.01-28.19.08-138.2.06-276.41,0-414.63.31-14.58-12.23-27.96-26.86-28.29-58.89-.19-117.77.06-176.64-.13Z"/>
    <path d="M148.16,133.51c1.08-.14,3.21-.43,4.29-.56,139.84-.02,279.67.02,419.51-.02,7.7,0,16.65-.74,22.77,4.92,6.83,5.46,9.16,15.8,5.09,23.59-3.1,6.96-10.62,11.52-18.19,11.27-143.05.02-286.1,0-429.15.02-8.57.31-16.96-5.54-19.38-13.82-3.81-10.78,3.79-23.56,15.06-25.39Z"/>
    <path d="M146.73,221.05c1.86-.39,3.74-.58,5.67-.56,143.07,0,286.15-.02,429.23,0,11.04-.84,20.96,9.56,20.15,20.49-.21,10.4-9.79,19.62-20.28,18.82-143,.1-286.01.02-429.01.03-10.54.82-20.14-8.55-20.27-18.95-.55-8.9,5.9-17.6,14.5-19.83Z"/>
    <path d="M148.28,307.85c69.41-.69,138.89-.1,208.33-.29,74.99-.02,149.99.02,225-.02,7.3-.34,14.46,3.95,17.86,10.38,4.26,7.59,2.6,17.95-3.91,23.77-4.39,4.61-11.06,5.53-17.1,5.66-140.93.02-281.88-.02-422.82.02-8.34.31-17.42-3.01-21.23-10.93-6.46-11.09,1.27-26.66,13.87-28.59Z"/>
    <path d="M146.56,395.6c1.9-.61,3.86-.9,5.87-.88,142.54-.03,285.07,0,427.61-.02,5.71-.16,11.59,1.66,15.8,5.61,5.35,5.16,7.3,13.36,5.13,20.44-2.86,7.91-10.74,13.9-19.3,13.66-142.54.1-285.07-.02-427.61.05-7.59.18-15.94-3.1-19.4-10.27-6.32-10.43-.21-25.96,11.91-28.59Z"/>
  </g>
</svg>