<?xml version="1.0" encoding="UTF-8"?>
<svg id="Layer_1" xmlns="http://www.w3.org/2000/svg" version="1.1" viewBox="0 0 980 980">
  <!-- Generator: Adobe Illustrator 30.0.0, SVG Export Plug-In . SVG Version: 2.1.1 Build 123)  -->
  <g id="_x23_1d1d1bff">
    <path d="M483.37,31.5c9.62-2.44,19.4,1.45,27.25,6.87,13.05,9.13,22.74,21.98,33.22,33.78,117.42,135.6,234.6,271.43,351.74,407.27,5.96,6.96,11.36,14.52,14.97,22.98,3.01,7.05,4.77,14.91,3.32,22.55-1.3,7.89-5.91,14.89-11.79,20.15-6.78,6.25-15.66,10.89-25.06,10.74-9.35.24-18.3-3.75-25.77-9.09-7.57-5.31-13.99-12.04-19.94-19.06-100.41-116.27-200.7-232.63-301.09-348.91-13.45-15.52-26.51-31.43-41.33-45.68-23.86,27.09-47.22,54.64-70.9,81.89-86.65,100.35-173.29,200.71-259.95,301.06-5.4,6.29-11.1,12.37-15.62,19.37-2.82,3.78-5.63,8.43-10.51,9.68-13.11,2.11-26.37,4.58-39.7,3.3-5.8-.94-12.36-2.57-15.75-7.83-3.65-6.2-4.11-13.57-4.44-20.58-.71-7.35.28-14.69.28-22.04.05-2.47,0-5.11,1.38-7.27,3.57-6.22,9.54-10.47,14.11-15.88C208.38,335.05,328.81,195.17,449.65,55.64c9.42-10.09,19.84-20.78,33.72-24.14Z"/>
    <path d="M482.89,437.95c10.22-2.38,20.93.88,29.25,6.95,8.2,5.66,14.73,13.28,21.15,20.81,121.25,140.42,242.26,281.05,363.58,421.41,7.13,8.4,14.02,17.56,16.86,28.4,2.27,8.56.79,17.89-3.79,25.44-6.81,11.81-18.59,22.44-32.95,22.39-16.33-.38-29.85-11.48-40.19-23.15-96.29-111.38-192.39-222.92-288.6-334.37-19.53-22.45-38.51-45.41-59.19-66.81-92.63,107.03-184.9,214.4-277.44,321.52-19.74,22.95-39.53,45.84-59.23,68.82-8.63,9.64-16.65,20.22-27.75,27.21-8.26,5.12-18.35,8.46-28.08,6.1-9.53-1.94-17.27-8.58-23.17-16-6.74-8.34-10.21-19.69-7.71-30.29,2.4-10.87,9.28-20.05,16.54-28.22,98.32-114.32,196.73-228.58,295.24-342.75,24.73-28.61,49.42-57.24,74.24-85.77,8.52-9.47,18.59-18.49,31.24-21.69Z"/>
  </g>
</svg>