<?xml version="1.0" encoding="UTF-8"?>
<svg id="Layer_1" xmlns="http://www.w3.org/2000/svg" version="1.1" viewBox="0 0 320 320">
  <!-- Generator: Adobe Illustrator 30.0.0, SVG Export Plug-In . SVG Version: 2.1.1 Build 123)  -->
  <g id="_x23_010101ff">
    <path d="M151.21,30.2c3.26-3.32,8.64-5.71,13.09-3.5,5.97,4.27,10.77,9.9,15.98,15.02,31.09,31.25,62.33,62.36,93.52,93.51,5.3,5.02,3.49,16.15-4.98,16.38-20.12,1.13-40.29.03-60.42.43.44,37.97-.11,75.95.36,113.93-.94,9.76,2.35,20.84-4.48,29.17-28.42-.55-56.86.39-85.28-.32-5.01-.51-7.75-6.16-6.85-10.81-.46-44,.04-88.01-.16-132.01-19.95-.27-39.93.61-59.87-.3-5.41-.5-10.55-6.41-8.39-11.86,1.99-4.94,6.54-8.25,10.06-12.05,32.41-32.59,65.02-65,97.42-97.59Z" fill="#010101"/>
  </g>
</svg>