<?xml version="1.0" encoding="UTF-8"?>
<svg id="Layer_1" xmlns="http://www.w3.org/2000/svg" version="1.1" viewBox="0 0 240 240">
  <!-- Generator: Adobe Illustrator 30.0.0, SVG Export Plug-In . SVG Version: 2.1.1 Build 123)  -->
  <g id="_x23_040404ff">
    <path d="M112.28,21.26c4.21-4.76,12.86-6.4,16.91-.47,20.22,21.47,39.64,43.7,59.57,65.44,3.41,3.93,7.91,7.99,7.29,13.82-.07,7.1-8.96,12.58-15.37,9.26-4.42-3.19-7.79-7.55-11.44-11.54-11.8-13.54-24.38-26.39-36.14-39.96-.26,50.08-.01,100.15-.06,150.22-.09,3.72.19,8.37-2.73,11.27-4.68,4.67-13.76,4.69-17.77-.87-3.19-4.04-2.03-9.68-2.56-14.4-.05-49.04.1-98.07,0-147.11-14.34,15.68-29.11,30.96-43.36,46.72-2.7,3.01-5.76,6.02-9.75,7.21-5.86.31-11.88-4.21-12.35-10.25-1.62-5.22,2.79-8.9,5.72-12.37,20.69-22.31,41.44-44.58,62.05-66.97Z"/>
  </g>
</svg>