<?xml version="1.0" encoding="UTF-8"?>
<svg id="Layer_1" xmlns="http://www.w3.org/2000/svg" version="1.1" viewBox="0 0 800 800">
  <!-- Generator: Adobe Illustrator 30.0.0, SVG Export Plug-In . SVG Version: 2.1.1 Build 123)  -->
  <g id="_x23_007400ff">
    <path d="M400.11,0h1.52c1.9,4.98,4.76,9.47,7.42,14.06,108.94,217.99,217.99,435.94,326.93,653.94,7.27,16.99,16.27,33.16,24.27,49.81,13.37,26.22,25.97,52.84,39.75,78.84v3.35h-2.39c-7.96-4.15-16.49-7-24.6-10.8-39.89-16.73-79.36-34.42-119.27-51.12-22.7-10.47-45.97-19.69-68.78-29.91-25.25-10.75-50.34-21.87-75.6-32.62-36.37-16.04-73.04-31.43-109.4-47.52-22.42,10.46-45.38,19.76-67.98,29.86-11.86,4.73-23.28,10.44-35.16,15.13-32.22,13.94-64.36,28.12-96.69,41.84-16.44,7.58-33.21,14.44-49.87,21.52-15.34,7.22-31.2,13.29-46.58,20.41-14.89,6.49-29.88,12.72-44.77,19.21-18.44,8.18-37.21,15.59-55.55,24H0v-3.44c2.28-3.76,4.28-7.67,6.19-11.62,5.14-11.05,11.33-21.6,15.79-32.95,45.41-90.64,90.62-181.38,136.05-272,5.18-8.12,8.97-17,13.34-25.56,56.86-113.61,113.68-227.24,170.45-340.89,7.73-12.23,13.22-25.68,20.03-38.42,11.23-22.49,22.36-45.04,33.7-67.47,1.27-2.69,2.7-5.32,4.56-7.65Z"/>
  </g>
</svg>