<?xml version="1.0" encoding="UTF-8"?>
<svg id="Layer_1" xmlns="http://www.w3.org/2000/svg" version="1.1" viewBox="0 0 860 860">
  <!-- Generator: Adobe Illustrator 30.0.0, SVG Export Plug-In . SVG Version: 2.1.1 Build 123)  -->
  <g id="_x23_222222ff">
    <path d="M402.38,164.39c6.51-6.55,15.38-10.74,24.62-11.4,11.22-.94,22.72,3.35,30.61,11.37,120.84,120.82,241.66,241.66,362.5,362.49,5.46,5.1,10.53,10.94,12.97,18.13,5.46,14.38,1.17,31.59-10.14,41.94-35.19,35.17-70.36,70.35-105.54,105.53-4.26,4.47-8.94,8.73-14.69,11.18-11.47,5.32-25.54,4.51-36.29-2.16-4.94-2.87-8.73-7.21-12.74-11.17-74.56-74.54-149.1-149.11-223.67-223.64-75.09,75.06-150.15,150.14-225.22,225.21-3.81,3.88-7.68,7.84-12.54,10.4-11.85,6.67-27.22,6.45-38.82-.68-5.17-2.97-9.11-7.52-13.31-11.65-34.69-34.68-69.37-69.37-104.05-104.05-12.59-12.07-15.19-32.87-5.92-47.65,2.88-4.97,7.22-8.8,11.21-12.83,120.34-120.34,240.68-240.67,361.02-361.02Z"/>
  </g>
</svg>