<?xml version="1.0" encoding="UTF-8"?>
<svg id="Layer_1" xmlns="http://www.w3.org/2000/svg" version="1.1" viewBox="0 0 122.88 120.64">
  <!-- Generator: Adobe Illustrator 30.0.0, SVG Export Plug-In . SVG Version: 2.1.1 Build 123)  -->
  <path d="M108.91,66.6c1.63,1.55,3.74,2.31,5.85,2.28s4.2-.84,5.79-2.44l.12-.12c1.5-1.58,2.23-3.6,2.2-5.61-.03-2.01-.82-4.01-2.37-5.55-17.65-17.66-35.6-35.13-53.39-52.68-.05-.07-.1-.13-.16-.19-1.63-1.56-3.76-2.32-5.87-2.29-2.11.03-4.21.85-5.8,2.45l-.26.27C37.47,20.21,19.87,37.65,2.36,55.17c-1.54,1.54-2.33,3.53-2.36,5.54s.7,4.03,2.21,5.61l.15.15c1.58,1.57,3.66,2.38,5.76,2.41,2.1.03,4.22-.73,5.85-2.28L61.24,19.38l47.67,47.22h0ZM106.91,118.37c1.62,1.54,3.73,2.29,5.83,2.26,2.11-.03,4.2-.84,5.79-2.44l.12-.12c1.5-1.57,2.23-3.6,2.21-5.61-.03-2.01-.82-4.02-2.37-5.55-17.29-17.28-34.29-35.15-51.37-52.67-.05-.07-.11-.14-.17-.21-1.63-1.55-3.76-2.31-5.87-2.28-2.11.03-4.21.85-5.8,2.45-16.95,17.5-33.84,35.07-50.77,52.6l-.13.12c-1.54,1.53-2.32,3.53-2.35,5.54s.7,4.03,2.21,5.61l.15.15c1.58,1.57,3.66,2.38,5.76,2.41,2.1.03,4.22-.73,5.85-2.28l45.24-47.18,45.67,47.2h0Z"/>
</svg>