<?xml version="1.0" encoding="UTF-8"?>
<svg id="Layer_1" xmlns="http://www.w3.org/2000/svg" version="1.1" viewBox="0 0 860 860">
  <!-- Generator: Adobe Illustrator 30.0.0, SVG Export Plug-In . SVG Version: 2.1.1 Build 123)  -->
  <g id="_x23_000000ff">
    <path d="M414.1,198.07c17.75-4.1,37.02-1.12,52.7,8.17,6.39,3.67,12.07,8.48,17.19,13.77,108.19,108.15,216.43,216.25,324.64,324.39,20.52,19.87,26.99,52.39,16,78.7-8.26,20.96-26.88,37.13-48.52,43.11-14.55,3.65-30.21,3.2-44.3-2.09-9.58-3.5-18.32-9.15-25.68-16.18-92.07-91.91-184.04-183.91-276.11-275.81-88.23,88.04-176.33,176.21-264.52,264.28-7.14,6.92-13.68,14.59-22.09,20.04-6.48,4.43-13.77,7.5-21.25,9.79-15.57,3.93-32.42,3.22-47.25-3.15-21.48-8.72-37.9-28.37-43.11-50.89-2.63-12.01-2.25-24.54,1-36.38,3.04-10.24,8.21-19.86,15.28-27.88,3.15-3.43,6.51-6.66,9.79-9.96,106.92-106.82,213.81-213.67,320.75-320.48,9.68-9.64,22.08-16.61,35.48-19.43Z"/>
  </g>
</svg>