<?xml version="1.0" encoding="UTF-8"?>
<svg id="Layer_1" xmlns="http://www.w3.org/2000/svg" version="1.1" viewBox="0 0 700 700">
  <!-- Generator: Adobe Illustrator 30.0.0, SVG Export Plug-In . SVG Version: 2.1.1 Build 123)  -->
  <g id="_x23_000000ff">
    <path d="M335.25,171.24c8.72-7.63,23.86-6.92,31.53,1.97,106.91,107.09,214.02,214,320.96,321.06,8.26,7.35,9.87,20.86,3.14,29.66-7.41,12.23-27.14,13.69-36.1,2.31-101.67-101.44-202.99-203.23-304.78-304.56-101.79,101.33-203.11,203.12-304.78,304.56-8.11,10.22-24.64,10.09-33.47,1.03-6.71-6.02-8.2-16.47-5.2-24.68,4.69-8.92,12.82-15.21,19.69-22.35,103.02-102.98,206.01-206,309.01-309Z"/>
  </g>
</svg>