<?xml version="1.0" encoding="UTF-8"?>
<svg id="Layer_1" xmlns="http://www.w3.org/2000/svg" version="1.1" viewBox="0 0 980 980">
  <!-- Generator: Adobe Illustrator 30.0.0, SVG Export Plug-In . SVG Version: 2.1.1 Build 123)  -->
  <g id="_x23_1d1d1bff">
    <path d="M474.41,34.65c18.58-3.23,38.06.43,54.65,9.24,11.73,6,21.9,14.62,30.84,24.21,88.07,90.59,175.9,181.42,264,271.99,12.25,12.75,24.62,25.39,36.8,38.21,9.66,10.04,17.39,22.18,21.03,35.71,5.41,21.2,3.39,44.51-6.64,64.06-8.21,16.56-22.01,30.37-38.73,38.31-20.85,9.97-45.74,12.11-67.51,3.8-13.69-5-25.85-13.66-35.86-24.17-67.91-69.43-135.43-139.23-203.04-208.96-8.93-8.89-19.22-17.29-31.7-20.38-8.76-2.29-18.12-.54-26.09,3.5-11.42,5.59-20.42,14.82-29.11,23.87-65.41,67.59-130.91,135.1-196.52,202.49-13.51,14.1-31.07,24.94-50.57,27.97-18.74,2.96-38.09-1.17-54.98-9.46-14.25-6.87-26.41-18.11-34.13-31.95-7.53-13.42-11.22-28.79-11.87-44.1-.79-17,3.96-34.3,13.72-48.3,5.74-8.42,13.35-15.3,20.32-22.68,96.42-99.57,192.78-199.2,289.76-298.24,6.14-6.18,11.92-12.78,18.76-18.23,10.64-8.55,23.4-14.56,36.87-16.89Z"/>
    <path d="M480.43,450.6c14.38-1.64,29.14.53,42.26,6.72,15.38,6.87,28.39,17.98,39.81,30.19,93.09,95.58,186.01,191.33,278.72,287.27,10.84,11.82,23.45,22.3,31.65,36.3,9.51,15.8,14.17,34.77,11.73,53.16-1.96,18.17-10.45,35.27-22.37,48.97-11.39,13.2-27.19,22.41-44.2,26.11-12.44,3.14-25.34,2.34-38.03,2.44-95,.01-190,.02-285,0-23.65.86-47.33.25-71,.44-65.33-.01-130.67,0-196-.01-17.02-.21-34.07.55-51.06-.68-15.28-1.21-30.39-5.84-43.37-14.06-12.77-8.1-22.98-20.02-29.31-33.74-8.92-19.02-12.55-41.28-6.47-61.69,4.28-15.5,13.45-29.22,24.46-40.77,91.95-94.39,183.59-189.08,275.39-283.61,9.78-9.89,19.28-20.06,29.29-29.71,14.84-13.75,33.19-24.62,53.5-27.33Z"/>
  </g>
</svg>