<?xml version="1.0" encoding="UTF-8"?>
<svg id="Layer_1" xmlns="http://www.w3.org/2000/svg" version="1.1" viewBox="0 0 512 512">
  <!-- Generator: Adobe Illustrator 30.0.0, SVG Export Plug-In . SVG Version: 2.1.1 Build 123)  -->
  <defs>
    <style>
      .st0 {
        fill: #07c;
      }

      .st1 {
        fill: #41a5ee;
      }

      .st2 {
        fill: #d8efff;
      }
    </style>
  </defs>
  <g id="_x23_41a5eeff">
    <path class="st1" d="M78.76,0h250.36c-.19,42.31-.04,84.62-.08,126.93,42.33-.07,84.66.16,126.99-.11-.06,37.72-.01,75.45-.03,113.18H56c0-69.66,0-139.32,0-208.99-.05-5.35-.26-10.95,2.06-15.92,3.48-8.34,11.78-14.13,20.7-15.09Z"/>
    <path class="st1" d="M56,440h400c-.05,16.02.09,32.05-.07,48.08-.21,12.24-10.63,22.87-22.73,23.92H79.06c-12.2-.93-22.83-11.62-23-23.96-.15-16.01-.02-32.03-.06-48.04Z"/>
  </g>
  <g id="_x23_d8efffff">
    <path class="st2" d="M329.12,0h.1c42.29,42.25,84.58,84.5,126.81,126.82-42.33.27-84.66.04-126.99.11.04-42.31-.11-84.62.08-126.93Z"/>
    <path class="st2" d="M204.25,269.42c10.94-.61,22.78-.04,32.21,6.16,6.96,4.51,11.37,12.09,13.17,20.06,1.77,6.97,2.14,14.2,2.12,21.37-.03,16.34.05,32.67-.03,49.01-.2,9.97-1.43,20.39-6.55,29.16-4.87,8.17-13.79,13.22-23.06,14.63-10.3,1.6-21.15,1.51-31.1-1.91-8.27-2.95-15.12-9.64-18.19-17.89-3.45-8.9-4.1-18.58-4.04-28.04.07-17-.12-34,.1-50.99.51-11.13,2.39-23.35,10.58-31.6,6.41-6.69,15.79-9.38,24.79-9.96M206.17,291.26c-5.7,2.36-6.06,9.44-6.23,14.74-.05,22.67-.05,45.34,0,68.01.25,4.95.26,11.27,5.07,14.14,4.3,1.89,10.66,1.57,13.27-2.9,2.21-3.64,2.18-8.09,2.37-12.22.04-22,.02-44.01.01-66.02-.2-4.4-.07-9.24-2.74-12.99-2.54-3.7-7.82-3.98-11.75-2.76Z"/>
    <path class="st2" d="M279.85,278.76c7.91-7.69,19.45-9.62,30.08-9.55,9.97.02,20.8,1.52,28.5,8.45,5.13,4.39,7.93,10.8,9.35,17.27,2.13,8.48,1.43,17.28,1.54,25.93-9.91.01-19.82,0-29.73.01-.16-7.3.35-14.63-.5-21.89-.37-3.44-2.35-7.26-6.03-7.98-3.62-.77-8.11-.61-10.66,2.45-3.16,3.74-3,8.94-3.23,13.55-.05,21.33,0,42.67-.02,64.01.21,5.01-.11,10.62,2.97,14.9,2.41,3.38,7.14,3.77,10.88,2.9,3.55-.79,5.41-4.44,5.91-7.75,1.09-7.66.47-15.42.65-23.12,9.91-.01,19.82-.01,29.73,0,.12,12.65.64,26.15-5.73,37.57-5.35,9.43-16.14,14.28-26.63,14.94-12.53,1-26.73.13-36.47-8.79-9.28-8.29-11.35-21.48-11.95-33.27-.17-18.91-.16-37.81,0-56.71.58-11.6,2.47-24.54,11.34-32.92Z"/>
    <path class="st2" d="M71.01,271.06c10.99,0,21.98.01,32.98,0,10.22.09,20.81.44,30.29,4.69,6.61,2.84,11.82,8.55,14.26,15.3,4.18,11.16,3.47,23.29,3.55,35-.1,14.64.21,29.28-.18,43.92-.61,10.62-2.54,22.49-11.04,29.83-8.47,7.23-20.18,8.47-30.88,8.91-12.99.22-25.98.03-38.98.03-.03-45.89-.01-91.78,0-137.68M101.4,292.33c.01,31.78.01,63.55.03,95.33,5.69-.19,13.03,1,16.96-4.17,2.67-4.26,2.07-9.65,2.38-14.46-.02-20.62.09-41.24-.05-61.85-.38-4.41-.12-9.96-4.28-12.72-4.51-2.67-10.03-1.96-15.04-2.13Z"/>
    <path class="st2" d="M356.83,271.07c9.59.02,19.19-.08,28.78.05,4.92,12.41,10.07,24.73,15.02,37.13,4.19-12.36,8.16-24.8,12.28-37.18,8.44-.01,16.88-.01,25.31,0-8.01,23.9-16.15,47.76-24.11,71.68,9.01,21.97,17.92,43.98,26.87,65.98-9.54-.01-19.07.02-28.6-.01-5.62-13.68-11.15-27.4-16.83-41.05-4.92,13.69-9.83,27.38-14.77,41.07-8.38-.02-16.75,0-25.13,0,8.79-24.64,17.8-49.2,26.51-73.85-8-21.4-16.98-42.51-25.33-63.81Z"/>
  </g>
  <g id="_x23_0077ccff">
    <path class="st0" d="M0,262.88c.96-12.55,12.33-23.16,24.97-22.86,10.34-.06,20.69,0,31.03-.02h400c11.04.09,22.08-.18,33.11.13,11.86.65,21.8,10.9,22.89,22.59v154.34c-.96,11.79-10.97,22.15-22.89,22.81-11.03.31-22.08.04-33.11.13H56c-11.03-.09-22.06.19-33.08-.13-11.84-.68-21.84-10.87-22.92-22.57v-154.42M204.25,269.42c-9,.58-18.38,3.27-24.79,9.96-8.19,8.25-10.07,20.47-10.58,31.6-.22,16.99-.03,33.99-.1,50.99-.06,9.46.59,19.14,4.04,28.04,3.07,8.25,9.92,14.94,18.19,17.89,9.95,3.42,20.8,3.51,31.1,1.91,9.27-1.41,18.19-6.46,23.06-14.63,5.12-8.77,6.35-19.19,6.55-29.16.08-16.34,0-32.67.03-49.01.02-7.17-.35-14.4-2.12-21.37-1.8-7.97-6.21-15.55-13.17-20.06-9.43-6.2-21.27-6.77-32.21-6.16M279.85,278.76c-8.87,8.38-10.76,21.32-11.34,32.92-.16,18.9-.17,37.8,0,56.71.6,11.79,2.67,24.98,11.95,33.27,9.74,8.92,23.94,9.79,36.47,8.79,10.49-.66,21.28-5.51,26.63-14.94,6.37-11.42,5.85-24.92,5.73-37.57-9.91-.01-19.82-.01-29.73,0-.18,7.7.44,15.46-.65,23.12-.5,3.31-2.36,6.96-5.91,7.75-3.74.87-8.47.48-10.88-2.9-3.08-4.28-2.76-9.89-2.97-14.9.02-21.34-.03-42.68.02-64.01.23-4.61.07-9.81,3.23-13.55,2.55-3.06,7.04-3.22,10.66-2.45,3.68.72,5.66,4.54,6.03,7.98.85,7.26.34,14.59.5,21.89,9.91-.01,19.82,0,29.73-.01-.11-8.65.59-17.45-1.54-25.93-1.42-6.47-4.22-12.88-9.35-17.27-7.7-6.93-18.53-8.43-28.5-8.45-10.63-.07-22.17,1.86-30.08,9.55M71.01,271.06c-.01,45.9-.03,91.79,0,137.68,13,0,25.99.19,38.98-.03,10.7-.44,22.41-1.68,30.88-8.91,8.5-7.34,10.43-19.21,11.04-29.83.39-14.64.08-29.28.18-43.92-.08-11.71.63-23.84-3.55-35-2.44-6.75-7.65-12.46-14.26-15.3-9.48-4.25-20.07-4.6-30.29-4.69-11,.01-21.99,0-32.98,0M356.83,271.07c8.35,21.3,17.33,42.41,25.33,63.81-8.71,24.65-17.72,49.21-26.51,73.85,8.38,0,16.75-.01,25.13,0,4.94-13.69,9.85-27.38,14.77-41.07,5.68,13.65,11.21,27.37,16.83,41.05,9.53.03,19.06,0,28.6.01-8.95-22-17.86-44.01-26.87-65.98,7.96-23.92,16.1-47.78,24.11-71.68-8.43-.01-16.87-.01-25.31,0-4.12,12.38-8.09,24.82-12.28,37.18-4.95-12.4-10.1-24.72-15.02-37.13-9.59-.13-19.19-.03-28.78-.05Z"/>
    <path class="st0" d="M206.17,291.26c3.93-1.22,9.21-.94,11.75,2.76,2.67,3.75,2.54,8.59,2.74,12.99,0,22.01.03,44.02-.01,66.02-.19,4.13-.16,8.58-2.37,12.22-2.61,4.47-8.97,4.79-13.27,2.9-4.81-2.87-4.82-9.19-5.07-14.14-.05-22.67-.05-45.34,0-68.01.17-5.3.53-12.38,6.23-14.74Z"/>
    <path class="st0" d="M101.4,292.33c5.01.17,10.53-.54,15.04,2.13,4.16,2.76,3.9,8.31,4.28,12.72.14,20.61.03,41.23.05,61.85-.31,4.81.29,10.2-2.38,14.46-3.93,5.17-11.27,3.98-16.96,4.17-.02-31.78-.02-63.55-.03-95.33Z"/>
  </g>
</svg>