<?xml version="1.0" encoding="UTF-8"?>
<svg id="Layer_1" xmlns="http://www.w3.org/2000/svg" version="1.1" viewBox="0 0 512 512">
  <!-- Generator: Adobe Illustrator 30.0.0, SVG Export Plug-In . SVG Version: 2.1.1 Build 123)  -->
  <defs>
    <style>
      .st0 {
        fill: #80b4fb;
      }

      .st1 {
        fill: #6ec186;
      }

      .st2 {
        fill: #9dc6fb;
      }

      .st3 {
        fill: #ecc32e;
      }

      .st4 {
        fill: #63af7d;
      }

      .st5 {
        fill: #4070f6;
      }

      .st6 {
        fill: #4a81f6;
      }
    </style>
  </defs>
  <g id="_x23_9dc6fbff">
    <path class="st2" d="M97.48,0h255.99c5.72,6.12,11.99,11.69,17.83,17.69,2.06,2.14,4.34,4.06,6.87,5.64.02.32.06.95.08,1.27.29,15.75-.08,31.52.17,47.27.02,2.3,2.43,3.77,4.57,3.51,16.05-.02,32.1.11,48.16-.07l.31.32c-.18,67.45-.02,134.91-.07,202.36-.11,25.69.23,51.38-.18,77.07-125.36.07-250.72-.14-376.08.1.27-104.03-.01-208.07.14-312.11.14-10.23,4.02-20.37,10.81-28.03C73.89,5.95,85.54.49,97.48,0M280.35,112.54c-8.45,1.35-14.87,9.87-13.76,18.38.71,8.98,9.58,16.21,18.52,15.04,9.14-.71,16.44-9.85,15.03-18.93-.92-9.32-10.62-16.42-19.79-14.49M206.55,148.42c-2.29,3.3-4.74,6.51-6.83,9.95-23.6,33.83-47.3,67.59-70.94,101.39-1.4,2.07-3.04,4.01-4.15,6.27-.82,2.64,1.72,5.27,4.37,4.83,49.77.03,99.54-.02,149.32.03,6.6.13,13.23.16,19.84-.02h70.23c5.23.17,10.47.17,15.7.01,2.75-.79,3.86-4.57,1.71-6.58-22-27.03-44.08-54-66.14-80.98-1.41-2-4.96-1.98-6.32.07-2.62,3.31-5.51,6.41-7.86,9.91l-.12-.14c-10.78,13.59-21.8,27.01-32.92,40.33-1.14-2.14-2.59-4.08-3.98-6.06-18.39-26.22-36.71-52.5-55.13-78.7-1.3-2.52-5.29-2.75-6.78-.31Z"/>
    <path class="st2" d="M297.38,413.41c6.16-10.35,17.49-17.47,29.54-18.3,9.98-.79,20.26,2.46,27.82,9.07,2.06,1.78,4.43,3.84,4.44,6.81.22,3.84-3.44,7.26-7.26,6.77-2.51-.16-4.19-2.19-5.95-3.72-6.1-5.56-15.16-7.59-23.04-5.13-7.04,2.08-12.86,7.6-15.64,14.36-3.32,7.83-2.57,17.24,2.01,24.41,4.19,6.73,11.75,11.34,19.73,11.52,6.96.28,13.83-2.57,18.85-7.34.16-2.75.11-5.5.09-8.25-4.94-.22-9.9.08-14.84-.14-3.21-.19-5.87-3.21-5.76-6.41-.08-3.5,3.15-6.6,6.64-6.37,6.98-.02,13.95-.07,20.93.03,3.37-.03,6.38,2.96,6.43,6.33.14,4.66.03,9.32.05,13.99.05,3.03-.61,6.24-2.77,8.5-8.63,9.45-22.13,14.12-34.76,12.09-9.75-1.5-18.74-7.1-24.56-15.04-9.23-12.28-10.03-30.11-1.95-43.18Z"/>
    <path class="st2" d="M198.21,396.37c4.16-1.46,8.93,2.16,8.68,6.55.05,13.68.03,27.36,0,41.05.05,9.24-4.87,18.3-12.63,23.32-9.48,6.45-22.84,6.41-32.26-.15-5.55-3.79-9.81-9.6-11.34-16.18-.98-4.93,4.72-9.31,9.23-7.13,4.3,1.73,3.92,7.26,7.01,10.17,5,6.12,14.91,6.95,20.88,1.8,3.51-2.82,5.71-7.25,5.66-11.77.05-13.69-.04-27.38.03-41.08-.1-2.93,1.9-5.77,4.73-6.58Z"/>
    <path class="st2" d="M221.26,403.02c-.23-3.64,2.97-7.02,6.62-6.92,8.38-.08,16.76-.05,25.15-.01,8.15.05,16.14,4.21,20.82,10.9,4.32,5.99,5.72,13.91,3.89,21.05-2.12,8.66-9.12,15.88-17.69,18.31-8.28,2.22-16.97.42-25.38,1.33-.06,5.77.13,11.55-.07,17.33-.25,3.72-4.11,6.63-7.77,5.91-3.23-.49-5.76-3.6-5.57-6.86-.03-20.35-.03-40.7,0-61.04M234.71,409.03c-.08,8.42,0,16.85-.05,25.27,6.09.53,12.25.16,18.37.19,6.15-.06,11.51-5.37,11.96-11.44.85-6.55-4.2-13.36-10.89-13.94-6.46-.25-12.93-.08-19.39-.08Z"/>
  </g>
  <g id="_x23_80b4fbff">
    <path class="st0" d="M353.47,0h24.93c-.49,7.76-.13,15.55-.23,23.33-2.53-1.58-4.81-3.5-6.87-5.64-5.84-6-12.11-11.57-17.83-17.69Z"/>
    <path class="st0" d="M431.46,75.63c8.52-.2,17.06.18,25.58-.22-.19,93.22-.07,186.44-.06,279.66-8.59-.09-17.18-.06-25.77-.01.41-25.69.07-51.38.18-77.07.05-67.45-.11-134.91.07-202.36Z"/>
  </g>
  <g id="_x23_4070f6ff">
    <path class="st5" d="M378.4,0h.31c12.51,11.57,24.45,23.75,36.97,35.33,13.61,13.54,27.86,26.43,41.36,40.08-8.52.4-17.06.02-25.58.22l-.31-.32c-3.32-4.17-7.82-7.13-11.35-11.09-6.53-6.17-12.5-12.93-19.47-18.62-7.57-6.78-14.04-14.78-22.08-21-.02-.32-.06-.95-.08-1.27.1-7.78-.26-15.57.23-23.33Z"/>
    <path class="st5" d="M431.21,355.06c8.59-.05,17.18-.08,25.77.01.06,38.67,0,77.33.03,116-.92,13.61-8.43,26.74-20.02,34.07-5.18,3.55-11.2,5.47-17.24,6.86h-26.13c7.89-2.07,16.07-4.53,22.15-10.25,9.43-8.07,15.71-20.19,15.44-32.74-.03-37.98,0-75.97,0-113.95Z"/>
  </g>
  <g id="_x23_4a81f6ff">
    <path class="st6" d="M378.25,24.6c8.04,6.22,14.51,14.22,22.08,21,6.97,5.69,12.94,12.45,19.47,18.62,3.53,3.96,8.03,6.92,11.35,11.09-16.06.18-32.11.05-48.16.07-2.14.26-4.55-1.21-4.57-3.51-.25-15.75.12-31.52-.17-47.27Z"/>
    <path class="st6" d="M55.13,355.16c125.36-.24,250.72-.03,376.08-.1,0,37.98-.03,75.97,0,113.95.27,12.55-6.01,24.67-15.44,32.74-6.08,5.72-14.26,8.18-22.15,10.25H94.36c-8.04-1.07-15.91-4.06-22.29-9.14-10.95-8.32-17.4-22.09-17.03-35.82.06-37.29-.14-74.59.09-111.88M297.38,413.41c-8.08,13.07-7.28,30.9,1.95,43.18,5.82,7.94,14.81,13.54,24.56,15.04,12.63,2.03,26.13-2.64,34.76-12.09,2.16-2.26,2.82-5.47,2.77-8.5-.02-4.67.09-9.33-.05-13.99-.05-3.37-3.06-6.36-6.43-6.33-6.98-.1-13.95-.05-20.93-.03-3.49-.23-6.72,2.87-6.64,6.37-.11,3.2,2.55,6.22,5.76,6.41,4.94.22,9.9-.08,14.84.14.02,2.75.07,5.5-.09,8.25-5.02,4.77-11.89,7.62-18.85,7.34-7.98-.18-15.54-4.79-19.73-11.52-4.58-7.17-5.33-16.58-2.01-24.41,2.78-6.76,8.6-12.28,15.64-14.36,7.88-2.46,16.94-.43,23.04,5.13,1.76,1.53,3.44,3.56,5.95,3.72,3.82.49,7.48-2.93,7.26-6.77,0-2.97-2.38-5.03-4.44-6.81-7.56-6.61-17.84-9.86-27.82-9.07-12.05.83-23.38,7.95-29.54,18.3M198.21,396.37c-2.83.81-4.83,3.65-4.73,6.58-.07,13.7.02,27.39-.03,41.08.05,4.52-2.15,8.95-5.66,11.77-5.97,5.15-15.88,4.32-20.88-1.8-3.09-2.91-2.71-8.44-7.01-10.17-4.51-2.18-10.21,2.2-9.23,7.13,1.53,6.58,5.79,12.39,11.34,16.18,9.42,6.56,22.78,6.6,32.26.15,7.76-5.02,12.68-14.08,12.63-23.32.02-13.69.04-27.37,0-41.05.25-4.39-4.52-8.01-8.68-6.55M221.26,403.02c-.03,20.34-.03,40.69,0,61.04-.19,3.26,2.34,6.37,5.57,6.86,3.66.72,7.52-2.19,7.77-5.91.2-5.78,0-11.56.07-17.33,8.41-.91,17.1.89,25.38-1.33,8.57-2.43,15.57-9.65,17.69-18.31,1.83-7.14.43-15.06-3.89-21.05-4.68-6.69-12.67-10.85-20.82-10.9-8.39-.04-16.77-.07-25.15.01-3.65-.1-6.85,3.28-6.62,6.92Z"/>
    <path class="st6" d="M234.71,409.03c6.46,0,12.93-.17,19.39.08,6.69.58,11.74,7.39,10.89,13.94-.45,6.07-5.81,11.38-11.96,11.44-6.12-.03-12.28.34-18.37-.19.05-8.42-.03-16.85.05-25.27Z"/>
  </g>
  <g id="_x23_ecc32eff">
    <path class="st3" d="M280.35,112.54c9.17-1.93,18.87,5.17,19.79,14.49,1.41,9.08-5.89,18.22-15.03,18.93-8.94,1.17-17.81-6.06-18.52-15.04-1.11-8.51,5.31-17.03,13.76-18.38Z"/>
  </g>
  <g id="_x23_63af7dff">
    <path class="st4" d="M206.55,148.42c1.49-2.44,5.48-2.21,6.78.31,18.42,26.2,36.74,52.48,55.13,78.7,1.39,1.98,2.84,3.92,3.98,6.06,8.12,12.75,17.45,24.71,25.72,37.38-6.61.18-13.24.15-19.84.02-12-17.95-24.78-35.37-36.99-53.17-13.94-19.73-27.65-39.63-41.61-59.35,2.09-3.44,4.54-6.65,6.83-9.95Z"/>
    <path class="st4" d="M313.34,183.39c1.36-2.05,4.91-2.07,6.32-.07,22.06,26.98,44.14,53.95,66.14,80.98,2.15,2.01,1.04,5.79-1.71,6.58-5.23.16-10.47.16-15.7-.01-20.65-26.1-42.16-51.54-62.91-77.57,2.35-3.5,5.24-6.6,7.86-9.91Z"/>
  </g>
  <g id="_x23_6ec186ff">
    <path class="st1" d="M128.78,259.76c23.64-33.8,47.34-67.56,70.94-101.39,13.96,19.72,27.67,39.62,41.61,59.35,12.21,17.8,24.99,35.22,36.99,53.17-49.78-.05-99.55,0-149.32-.03-2.65.44-5.19-2.19-4.37-4.83,1.11-2.26,2.75-4.2,4.15-6.27Z"/>
    <path class="st1" d="M305.36,193.16l.12.14c20.75,26.03,42.26,51.47,62.91,77.57h-70.23c-8.27-12.67-17.6-24.63-25.72-37.38,11.12-13.32,22.14-26.74,32.92-40.33Z"/>
  </g>
</svg>