<?xml version="1.0" encoding="UTF-8"?>
<svg id="Layer_1" xmlns="http://www.w3.org/2000/svg" version="1.1" viewBox="0 0 512 512">
  <!-- Generator: Adobe Illustrator 30.0.0, SVG Export Plug-In . SVG Version: 2.1.1 Build 123)  -->
  <defs>
    <style>
      .st0 {
        fill: #fff;
      }

      .st1 {
        fill: #e5252a;
      }

      .st2 {
        fill: #b71d21;
      }
    </style>
  </defs>
  <g id="_x23_e5252aff">
    <path class="st1" d="M165.49,0h176.54c-.07,45.34,0,90.68-.04,136.01-.45,8.8,7.14,17.1,16.03,17.02,39.32.08,78.66,0,117.99.03,6.33-.03,12.68.15,19.01-.23.06,94.71.01,189.43.02,284.14-.06,7.08.33,14.22-.98,21.21-2.78,16.37-12.27,31.4-25.66,41.17-10.08,7.6-22.46,11.82-35.01,12.65H165.11c-18.86-1.13-36.98-10.8-48.26-25.97-8.54-11.1-13.23-25.05-13.16-39.05-.01-23.7-.01-47.4,0-71.11,93.12-.06,186.24.01,279.36-.03,5.11.17,10.33-2.32,12.9-6.83,2.64-4.2,2.07-9.34,2.13-14.06-.03-40.31,0-80.62,0-120.93.12-4.28-1.03-8.81-4.25-11.82-3.04-3.15-7.52-4.35-11.8-4.21-92.78,0-185.56.02-278.34,0-.02-50.98-.01-101.96,0-152.94-.15-17.86,7.64-35.54,20.82-47.56C135.47,6.95,150.37.88,165.49,0Z"/>
  </g>
  <g id="_x23_b71d21ff">
    <path class="st2" d="M342.03,0h.27c50.88,50.97,101.9,101.8,152.72,152.83-6.33.38-12.68.2-19.01.23-39.33-.02-78.67.05-117.99-.03-8.89.08-16.48-8.22-16.03-17.02.04-45.33-.03-90.67.04-136.01Z"/>
    <path class="st2" d="M18.65,225.64c2.48-4.84,7.88-7.83,13.29-7.64,23.92,0,47.83.02,71.75,0,92.78.02,185.56,0,278.34,0,4.28-.14,8.76,1.06,11.8,4.21,3.22,3.01,4.37,7.54,4.25,11.82,0,40.31-.03,80.62,0,120.93-.06,4.72.51,9.86-2.13,14.06-2.57,4.51-7.79,7-12.9,6.83-93.12.04-186.24-.03-279.36.03-24.25-.04-48.5.04-72.75-.03-7.34.02-13.89-6.47-13.94-13.8-.1-42.36,0-84.72-.05-127.07-.06-3.18.08-6.51,1.7-9.33M82.9,252.98c-.01,29.34-.02,58.69,0,88.03-.2,4.4,3.67,8.48,8.09,8.43,4.56.25,8.66-3.94,8.43-8.48.03-8.56,0-17.12.02-25.67,6.83-.11,13.67.11,20.5-.13,10.96-.59,21.41-6.81,27.22-16.11,5.84-9.07,6.96-20.83,3.58-31-3.63-10.9-13.01-19.65-24.14-22.48-5.07-1.46-10.38-1.14-15.58-1.17-6.7.02-13.4-.04-20.1.03-4.45,0-8.28,4.12-8.02,8.55M178.4,244.58c-3.84.76-6.75,4.51-6.55,8.42-.01,29.34-.01,58.68,0,88.02-.2,4.43,3.71,8.5,8.16,8.43,8.96.03,17.93.02,26.89,0,8.59-.03,17.09-3.39,23.38-9.23,7.01-6.38,11.18-15.73,11.26-25.21,0-12.35.09-24.71-.04-37.06-.32-13.85-9.84-26.85-22.9-31.42-7.53-2.97-15.74-1.95-23.63-2.13-5.53.11-11.08-.23-16.58.18M262.41,252.93c0,29.38-.01,58.76.01,88.14-.12,3.88,2.85,7.58,6.7,8.23,4.58,1.04,9.43-2.63,9.76-7.3.19-13.88-.06-27.78.12-41.66,12.64-.02,25.27,0,37.9-.01,4.56.29,8.81-3.78,8.59-8.36.09-4.48-4.05-8.37-8.49-8.16-12.68-.03-25.36.02-38.04-.02-.03-7.62-.03-15.23,0-22.84,15.01-.05,30.03.02,45.04-.04,4.96.07,9.12-5.03,7.95-9.88-.67-3.7-4.17-6.6-7.92-6.61-17.69-.04-35.38,0-53.07-.02-4.61-.26-8.8,3.92-8.55,8.53Z"/>
    <path class="st2" d="M99.41,261.22c5.65-.67,11.71-.1,17.52-.29,8.33-.48,16.45,5.43,18.5,13.52,3.18,10.23-3.6,22.32-14.39,23.97-7.16.68-14.41.16-21.6.29-.04-12.5.02-25-.03-37.49Z"/>
    <path class="st2" d="M188.38,261.03c6.53-.19,13.09-.1,19.63-.04,9.2.44,17.07,8.77,17.02,17.98.02,11.99.03,23.99,0,35.99,0,9.16-7.82,17.44-16.97,17.92-6.56.1-13.12.05-19.68.03v-71.88Z"/>
  </g>
  <g id="_x23_ffffffff">
    <path class="st0" d="M82.9,252.98c-.26-4.43,3.57-8.55,8.02-8.55,6.7-.07,13.4,0,20.1-.03,5.2.03,10.51-.29,15.58,1.17,11.13,2.83,20.51,11.58,24.14,22.48,3.38,10.17,2.26,21.93-3.58,31-5.81,9.3-16.26,15.52-27.22,16.11-6.83.24-13.67.02-20.5.13-.03,8.55,0,17.11-.02,25.67.23,4.54-3.87,8.73-8.43,8.48-4.42.05-8.29-4.03-8.09-8.43-.02-29.34-.01-58.69,0-88.03M99.41,261.22c.05,12.49-.01,24.99.03,37.49,7.19-.13,14.44.39,21.6-.29,10.79-1.65,17.57-13.74,14.39-23.97-2.05-8.09-10.17-14-18.5-13.52-5.81.19-11.87-.38-17.52.29Z"/>
    <path class="st0" d="M178.4,244.58c5.5-.41,11.05-.07,16.58-.18,7.89.18,16.1-.84,23.63,2.13,13.06,4.57,22.58,17.57,22.9,31.42.13,12.35.05,24.71.04,37.06-.08,9.48-4.25,18.83-11.26,25.21-6.29,5.84-14.79,9.2-23.38,9.23-8.96.02-17.93.03-26.89,0-4.45.07-8.36-4-8.16-8.43-.02-29.34-.02-58.68,0-88.02-.2-3.91,2.71-7.66,6.55-8.42M188.38,261.03v71.88c6.56.02,13.12.07,19.68-.03,9.15-.48,16.98-8.76,16.97-17.92.03-12,.02-24,0-35.99.05-9.21-7.82-17.54-17.02-17.98-6.54-.06-13.1-.15-19.63.04Z"/>
    <path class="st0" d="M262.41,252.93c-.25-4.61,3.94-8.79,8.55-8.53,17.69.01,35.38-.02,53.07.02,3.75,0,7.25,2.91,7.92,6.61,1.17,4.85-2.99,9.95-7.95,9.88-15.01.06-30.03-.01-45.04.04-.03,7.61-.03,15.22,0,22.84,12.68.04,25.36-.01,38.04.02,4.44-.21,8.58,3.68,8.49,8.16.22,4.58-4.03,8.65-8.59,8.36-12.63.01-25.26,0-37.9.01-.18,13.88.07,27.78-.12,41.66-.33,4.67-5.18,8.34-9.76,7.3-3.85-.65-6.82-4.35-6.7-8.23-.02-29.38-.01-58.76-.01-88.14Z"/>
  </g>
</svg>