<?xml version="1.0" encoding="UTF-8"?>
<svg id="Layer_1" xmlns="http://www.w3.org/2000/svg" version="1.1" viewBox="0 0 512 512">
  <!-- Generator: Adobe Illustrator 30.0.0, SVG Export Plug-In . SVG Version: 2.1.1 Build 123)  -->
  <defs>
    <style>
      .st0 {
        fill: #f3d55b;
      }

      .st1 {
        fill: #659c35;
      }

      .st2 {
        fill: #e9e9e0;
      }

      .st3 {
        fill: #fff;
      }

      .st4 {
        fill: #88c057;
      }

      .st5 {
        fill: #d9d7ca;
      }
    </style>
  </defs>
  <g id="_x23_e9e9e0ff">
    <path class="st2" d="M72.29,0h266.09c1.75.29,3.41.82,4.9,1.81-.21,2.38-.41,4.76-.42,7.15.07,30.01,0,60.03.03,90.04.05,3.56-.34,7.17.33,10.7,35.94.19,71.9.18,107.84,0,1.46,2.67,1.06,5.81,1.47,8.73.19,50.21-.25,100.44.28,150.64-.04,77,.08,153.99-.05,230.99.34,4.19-2.4,7.82-5.92,9.77,3.46-2.95,6.03-7.16,5.72-11.85.01-47.22.02-94.43,0-141.64-2.48.78-5.05.51-7.59.47-128.38-.1-256.75.06-385.11-.09l-.39,1.14c-.09,46.7-.02,93.41-.03,140.11-.31,4.68,2.24,8.86,5.65,11.83-2.77-1.69-5.41-4.29-5.71-7.69-.34-4.02-.14-8.05-.19-12.07.1-49.69-.24-99.39.25-149.06,0-107.32,0-214.64,0-321.97-.02-4.61.48-9.49,3.15-13.41,2.04-3.36,5.83-5.36,9.71-5.59M172.18,90.25c-9.46.3-18.88,3.68-26.01,9.97-12.28,10.02-17.62,27.59-13.21,42.78,3.65,13.88,15.09,25.42,29,29.05,15.44,4.52,33.33-1.05,43.29-13.74,10.84-12.71,12.54-32.28,4.12-46.7-7.14-13.32-22.13-21.72-37.19-21.36M265.64,273.79l-.67.18c-16.77-16.46-33.26-33.24-49.96-49.77-51.71,43.77-103.08,87.96-154.89,131.6,1.61.41,3.43-.23,4.89.72,126.68.01,253.35,0,380.03.02,2.6-.16,5.91,1.14,7.73-1.47-.54-31.98.08-64.01-.31-95.99-.7-1.53-.29-3.25-.77-4.82l-.98-.06c-29.89-28.29-59.66-56.72-89.55-85-31.88,34.83-63.72,69.69-95.52,104.59Z"/>
  </g>
  <g id="_x23_d9d7caff">
    <path class="st5" d="M343.28,1.81c3.22,2.7,6,5.93,9.06,8.84,24.5,24.5,48.99,49,73.49,73.5,8.35,8.56,17.16,16.75,25.23,25.54-35.94.19-71.9.2-107.84,0-.67-3.53-.28-7.14-.33-10.7-.04-30.01.04-60.03-.03-90.04.01-2.39.21-4.77.42-7.15Z"/>
  </g>
  <g id="_x23_f3d55bff">
    <path class="st0" d="M172.18,90.25c15.06-.36,30.05,8.04,37.19,21.36,8.42,14.42,6.72,33.99-4.12,46.7-9.96,12.69-27.85,18.26-43.29,13.74-13.91-3.63-25.35-15.17-29-29.05-4.41-15.19.93-32.76,13.21-42.78,7.13-6.29,16.55-9.67,26.01-9.97Z"/>
  </g>
  <g id="_x23_88c057ff">
    <path class="st4" d="M265.64,273.79c31.8-34.9,63.64-69.76,95.52-104.59,29.89,28.28,59.66,56.71,89.55,85l.98.06c.48,1.57.07,3.29.77,4.82.39,31.98-.23,64.01.31,95.99-1.82,2.61-5.13,1.31-7.73,1.47-126.68-.02-253.35-.01-380.03-.02-1.46-.95-3.28-.31-4.89-.72,51.81-43.64,103.18-87.83,154.89-131.6,16.7,16.53,33.19,33.31,49.96,49.77l.67-.18Z"/>
  </g>
  <g id="_x23_659c35ff">
    <path class="st1" d="M59.86,356.71c128.36.15,256.73,0,385.11.09,2.54.04,5.11.31,7.59-.47.02,47.21.01,94.42,0,141.64.31,4.69-2.26,8.9-5.72,11.85-1.35.99-2.97,1.45-4.45,2.18H69.67c-1.54-.71-3.2-1.2-4.58-2.21-3.41-2.97-5.96-7.15-5.65-11.83.01-46.7-.06-93.41.03-140.11l.39-1.14M335.39,392.57c-9.7,2.49-17.73,9.78-22.12,18.65-5.92,12.09-6.51,26.11-4.63,39.23,1.88,11.22,7.23,22.48,17.01,28.83,10.97,7.23,25.35,7.19,37.39,2.82,4.94-2.44,10.51-4.93,13.3-9.91-.08-11.71.02-23.41-.05-35.12-10.15-.02-20.31-.03-30.46,0-.04,3.4-.04,6.8,0,10.21,5.18.27,10.63-.44,15.66.35-.13,7.45,0,14.91-.07,22.37-1.71,2.26-4.74,2.55-7.27,3.28-5.23.87-10.9,1.59-15.87-.73-5.41-2.28-9.16-7.22-11.52-12.45-3.98-10.13-4.54-21.35-3.17-32.07,1.16-7.8,3.95-16.02,10.49-20.93,8.02-5.75,20.38-4.9,26.86,2.82,3.8-2.29,7.04-6.08,10.58-8.99-9.39-9.08-23.74-12.07-36.13-8.37M144.11,392.42c-.4,30.55-.06,61.19-.17,91.77,4.6.94,9.96.04,14.84.42.5-11.07-.22-22.28.37-33.33,9.44.04,19.48.71,28.09-3.89,16.17-7.55,20.52-31.88,8.01-44.57-6.13-6.83-15.38-10.13-24.41-10.34-8.91-.11-17.82,0-26.73-.06M219.65,392.68c.06,30.56.06,61.12.01,91.68,4.99.52,10.12.01,15.16.24.31-20.91-.02-41.85.17-62.77,3.02,3.73,4.96,8.49,7.57,12.63,9.61,16.67,18.87,33.6,28.7,50.12,5.02-.14,10.07.19,15.07-.16-.03-30.6-.04-61.2.01-91.8-5.02-.47-10.15-.02-15.2-.21-.23,20.99.06,42-.15,62.99-12.45-20.72-23.85-42.21-36.25-62.98-5.01.21-10.16-.34-15.09.26Z"/>
    <path class="st1" d="M158.96,403.87c7.86.31,16.84-1.52,23.5,3.74,5.79,4.77,6.26,13.1,4.92,19.94-.87,4.98-3.96,9.83-8.85,11.63-6.36,1.85-13.04.92-19.57,1.11-.04-12.14-.03-24.28,0-36.42Z"/>
  </g>
  <g id="_x23_ffffffff">
    <path class="st3" d="M335.39,392.57c12.39-3.7,26.74-.71,36.13,8.37-3.54,2.91-6.78,6.7-10.58,8.99-6.48-7.72-18.84-8.57-26.86-2.82-6.54,4.91-9.33,13.13-10.49,20.93-1.37,10.72-.81,21.94,3.17,32.07,2.36,5.23,6.11,10.17,11.52,12.45,4.97,2.32,10.64,1.6,15.87.73,2.53-.73,5.56-1.02,7.27-3.28.06-7.46-.06-14.92.07-22.37-5.03-.79-10.48-.08-15.66-.35-.04-3.41-.04-6.81,0-10.21,10.15-.04,20.31-.03,30.46,0,.07,11.71-.03,23.41.05,35.12-2.79,4.98-8.36,7.47-13.3,9.91-12.04,4.37-26.42,4.41-37.39-2.82-9.78-6.35-15.13-17.61-17.01-28.83-1.88-13.12-1.29-27.14,4.63-39.23,4.39-8.87,12.42-16.16,22.12-18.65Z"/>
    <path class="st3" d="M144.11,392.42c8.91.06,17.82-.05,26.73.06,9.03.21,18.28,3.51,24.41,10.34,12.51,12.69,8.16,37.02-8.01,44.57-8.61,4.6-18.65,3.93-28.09,3.89-.59,11.05.13,22.26-.37,33.33-4.88-.38-10.24.52-14.84-.42.11-30.58-.23-61.22.17-91.77M158.96,403.87c-.03,12.14-.04,24.28,0,36.42,6.53-.19,13.21.74,19.57-1.11,4.89-1.8,7.98-6.65,8.85-11.63,1.34-6.84.87-15.17-4.92-19.94-6.66-5.26-15.64-3.43-23.5-3.74Z"/>
    <path class="st3" d="M219.65,392.68c4.93-.6,10.08-.05,15.09-.26,12.4,20.77,23.8,42.26,36.25,62.98.21-20.99-.08-42,.15-62.99,5.05.19,10.18-.26,15.2.21-.05,30.6-.04,61.2-.01,91.8-5,.35-10.05.02-15.07.16-9.83-16.52-19.09-33.45-28.7-50.12-2.61-4.14-4.55-8.9-7.57-12.63-.19,20.92.14,41.86-.17,62.77-5.04-.23-10.17.28-15.16-.24.05-30.56.05-61.12-.01-91.68Z"/>
  </g>
</svg>