<?xml version="1.0" encoding="UTF-8"?>
<svg id="Layer_1" xmlns="http://www.w3.org/2000/svg" version="1.1" viewBox="0 0 512 591">
  <!-- Generator: Adobe Illustrator 30.0.0, SVG Export Plug-In . SVG Version: 2.1.1 Build 123)  -->
  <defs>
    <style>
      .st0 {
        fill: #d32f2f;
      }

      .st1 {
        fill: #bf2c2c;
      }

      .st2 {
        fill: #ffd4d8;
      }

      .st3 {
        fill: #e0bfc2;
      }

      .st4 {
        fill: #f7f7f7;
      }

      .st5 {
        fill: #eec5c9;
        isolation: isolate;
        opacity: .93;
      }
    </style>
  </defs>
  <g id="_x23_ffd4d8ff">
    <path class="st2" d="M102.25,0h301.78c.93,1.52,1.41,3.25,1.33,5.04,0,29.01-.05,58.03.02,87.05.07,8.08,7.56,15.04,15.63,14.59,30.29-.1,60.59.25,90.87-.18-.07,151.81.04,303.63-.05,455.44,0,15.07-13.17,28.59-28.26,28.91-4.75-1.26-9.69-.84-14.54-.85-117.69-.01-235.37.01-353.06-.01-4.5,0-9.07-.33-13.47.82-12.25-.57-23.44-9.71-26.62-21.52-1.51-4.96-1.06-10.19-1.13-15.3-.02-26.79.06-53.58-.04-80.37,44.75-.36,89.53-.05,134.29-.15,68.65-.01,137.3.01,205.95-.01,7.71-.04,15.53-2.07,21.79-6.68,9.15-6.46,14.76-17.53,14.6-28.73.02-47.35,0-94.7.01-142.05.16-5.84-.77-11.77-3.31-17.07-5.41-11.89-17.96-20.07-31.04-20.12-114.08-.02-228.16-.01-342.24-.01-.02-31.35,0-62.71-.01-94.06.03-45.23-.03-90.47.03-135.7-.07-14.87,12.66-28.21,27.47-29.04M146.29,71.39c-4.09,1.47-7.59,4.56-9.4,8.52-2.22,4.37-1.28,9.4-1.48,14.09.2,4.93-.82,10.29,1.8,14.77,2.7,5.4,8.66,8.96,14.7,8.76,65.03-.01,130.06.04,195.09-.02,8.17-.04,15.52-7.25,15.61-15.43,0-5.73.13-11.47-.08-17.19-.67-8.12-8.41-14.77-16.53-14.35-64.33-.02-128.66,0-192.99-.01-2.26-.01-4.56.11-6.72.86M146.44,165.53c-6.82,2.18-11.61,9.29-11.04,16.44.3,6-.64,12.14.6,18.05,1.84,6.5,8.11,11.54,14.91,11.64,94.69.02,189.39,0,284.08,0,5.54.15,11-2.93,13.83-7.67,3.94-6.3,1.86-14.04,2.39-21.02.74-6.88-3.06-14.03-9.45-16.84-4.28-2.03-9.12-1.26-13.69-1.41-92.02,0-184.04.01-276.06,0-1.89,0-3.78.19-5.57.8Z"/>
  </g>
  <g id="_x23_e0bfc2ff">
    <path class="st3" d="M404.03,0h1.29c19.31,18.91,38.26,38.2,57.44,57.25,16.35,16.44,32.89,32.7,49.12,49.25-30.28.43-60.58.08-90.87.18-8.07.45-15.56-6.51-15.63-14.59-.07-29.02-.03-58.04-.02-87.05.08-1.79-.4-3.52-1.33-5.04Z"/>
  </g>
  <g id="_x23_d32f2fff">
    <path class="st0" d="M146.29,71.39c2.16-.75,4.46-.87,6.72-.86,64.33.01,128.66-.01,192.99.01,8.12-.42,15.86,6.23,16.53,14.35.21,5.72.07,11.46.08,17.19-.09,8.18-7.44,15.39-15.61,15.43-65.03.06-130.06,0-195.09.02-6.04.2-12-3.36-14.7-8.76-2.62-4.48-1.6-9.84-1.8-14.77.2-4.69-.74-9.72,1.48-14.09,1.81-3.96,5.31-7.05,9.4-8.52Z"/>
    <path class="st0" d="M146.44,165.53c1.79-.61,3.68-.81,5.57-.8,92.02.01,184.04,0,276.06,0,4.57.15,9.41-.62,13.69,1.41,6.39,2.81,10.19,9.96,9.45,16.84-.53,6.98,1.55,14.72-2.39,21.02-2.83,4.74-8.29,7.82-13.83,7.67-94.69,0-189.39,0-284.08,0-6.8-.1-13.07-5.14-14.91-11.64-1.24-5.91-.3-12.05-.6-18.05-.57-7.15,4.22-14.26,11.04-16.44Z"/>
    <path class="st0" d="M0,217.44c1.47,5.49,2.73,11.12,5.36,16.22,6.25,11.64,17.48,20.36,30.23,23.74,5.36,1.29,10.91,1.61,16.41,1.54,7.59-.12,15.18.09,22.76-.14,114.08,0,228.16,0,342.24.01,13.08.05,25.63,8.23,31.04,20.12,2.54,5.3,3.47,11.23,3.31,17.07-.01,47.35,0,94.7-.01,142.05.16,11.2-5.45,22.27-14.6,28.73-6.26,4.61-14.08,6.64-21.79,6.68-68.65.02-137.3,0-205.95.01-44.76.1-89.54-.21-134.29.15-11.93-.17-23.97.84-35.82-.71-14.57-2.47-27.67-12.32-34.15-25.61-2.56-4.93-3.87-10.38-4.74-15.83v-214.03M114.97,294.62c-.03,47.68-.04,95.36,0,143.04,7.48-.04,14.96.13,22.43-.09-.03-19.36-.04-38.73,0-58.09,6.56-.15,13.19.39,19.67-.84,7.97-1.29,15.57-5.85,19.5-13.04,5.98-10.51,4.68-22.98,4.82-34.57.08-9.56-1.5-19.96-8.21-27.27-5.77-6.54-14.81-8.92-23.24-9.12-11.66-.08-23.32-.04-34.97-.02M193.96,294.62c-.03,47.68-.04,95.36,0,143.04,7.47-.01,14.94.07,22.41-.04.01-19.38-.03-38.76.02-58.14,10.66-.05,22.37.87,31.58-5.54,9.59-6.55,12.47-18.95,12.39-29.91-.2-12.37,1.5-25.94-5.57-36.88-5.18-8.44-15.3-12.2-24.82-12.47-12-.17-24.01-.06-36.01-.06M267.16,294.62c-.03,6.79-.02,13.57-.01,20.36,7.85.07,15.7-.04,23.55.05-.01,40.87,0,81.73-.01,122.59,7.47.11,14.94.03,22.41.04.07-40.88,0-81.76.03-122.64,7.85-.07,15.7.04,23.55-.05-.03-6.79.07-13.59-.05-20.38-23.16.03-46.32-.02-69.47.03Z"/>
    <path class="st0" d="M137.38,315.03c5.66.33,11.83-1.15,17.06,1.62,4.15,2.56,4.62,8.01,4.66,12.41-.11,6.68.25,13.38-.24,20.05-.32,4.02-2.53,8.35-6.76,9.33-4.82,1.07-9.83.37-14.72.52v-43.93Z"/>
    <path class="st0" d="M216.37,315.03c6.19.46,13.64-1.69,18.7,2.93,4.31,5.32,2.66,12.69,3.01,19.02-.33,6.19,1.17,13.2-2.57,18.63-4.87,5.31-12.81,2.83-19.14,3.35v-43.93Z"/>
  </g>
  <g id="_x23_bf2c2cff">
    <path class="st1" d="M12.22,180.21c8.53-9.52,21.08-15.26,33.86-15.43,9.56-.11,19.11-.02,28.67-.04.02,31.35-.01,62.71.01,94.06-7.58.23-15.17.02-22.76.14-5.5.07-11.05-.25-16.41-1.54-12.75-3.38-23.98-12.1-30.23-23.74-2.63-5.1-3.89-10.73-5.36-16.22v-7.81c.61-10.82,4.86-21.44,12.22-29.42Z"/>
  </g>
  <g id="_x23_f7f7f7ff">
    <path class="st4" d="M114.97,294.62c11.65-.02,23.31-.06,34.97.02,8.43.2,17.47,2.58,23.24,9.12,6.71,7.31,8.29,17.71,8.21,27.27-.14,11.59,1.16,24.06-4.82,34.57-3.93,7.19-11.53,11.75-19.5,13.04-6.48,1.23-13.11.69-19.67.84-.04,19.36-.03,38.73,0,58.09-7.47.22-14.95.05-22.43.09-.04-47.68-.03-95.36,0-143.04M137.38,315.03v43.93c4.89-.15,9.9.55,14.72-.52,4.23-.98,6.44-5.31,6.76-9.33.49-6.67.13-13.37.24-20.05-.04-4.4-.51-9.85-4.66-12.41-5.23-2.77-11.4-1.29-17.06-1.62Z"/>
    <path class="st4" d="M193.96,294.62c12,0,24.01-.11,36.01.06,9.52.27,19.64,4.03,24.82,12.47,7.07,10.94,5.37,24.51,5.57,36.88.08,10.96-2.8,23.36-12.39,29.91-9.21,6.41-20.92,5.49-31.58,5.54-.05,19.38,0,38.76-.02,58.14-7.47.11-14.94.03-22.41.04-.04-47.68-.03-95.36,0-143.04M216.37,315.03v43.93c6.33-.52,14.27,1.96,19.14-3.35,3.74-5.43,2.24-12.44,2.57-18.63-.35-6.33,1.3-13.7-3.01-19.02-5.06-4.62-12.51-2.47-18.7-2.93Z"/>
    <path class="st4" d="M267.16,294.62c23.15-.05,46.31,0,69.47-.03.12,6.79.02,13.59.05,20.38-7.85.09-15.7-.02-23.55.05-.03,40.88.04,81.76-.03,122.64-7.47-.01-14.94.07-22.41-.04.01-40.86,0-81.72.01-122.59-7.85-.09-15.7.02-23.55-.05,0-6.79-.02-13.57.01-20.36Z"/>
  </g>
  <g id="_x23_eec5c9ee">
    <path class="st5" d="M102.5,590.81c4.4-1.15,8.97-.82,13.47-.82,117.69.02,235.37,0,353.06.01,4.85.01,9.79-.41,14.54.85l-1.15.15H103.94l-1.44-.19Z"/>
  </g>
</svg>