<?xml version="1.0" encoding="UTF-8"?>
<svg id="Layer_1" xmlns="http://www.w3.org/2000/svg" version="1.1" viewBox="0 0 512 512">
  <!-- Generator: Adobe Illustrator 30.0.0, SVG Export Plug-In . SVG Version: 2.1.1 Build 123)  -->
  <defs>
    <style>
      .st0 {
        fill: #e9e9e0;
      }

      .st1 {
        fill: #fff;
      }

      .st2 {
        fill: #d9d7ca;
      }

      .st3 {
        fill: #c8bdb8;
      }

      .st4 {
        fill: #e57e25;
      }
    </style>
  </defs>
  <g id="_x23_e9e9e0ff">
    <path class="st0" d="M72.46,0h265.72c1.76.3,3.47.87,5.06,1.69-.62,8.07-.29,16.16-.37,24.23-.01,21.35.01,42.7,0,64.05.08,6.58-.25,13.17.25,19.74,36.01.08,72.03.17,108.04-.05,1.29,3.61,1.32,7.52,1.4,11.32v187.02c.1,18.34-.24,36.68.26,55.02-.15,46.2.25,92.41-.2,138.6v-1.11c-.17-47.98.06-95.97-.11-143.95H59.49c-.17,47.99.05,95.97-.11,143.96v1.12c-.31-3.87-.17-7.76-.19-11.63,0-41.68.01-83.37,0-125.05.51-26.32.15-52.66.26-79,0-88.67.01-177.35,0-266.02-.07-5.17.38-10.71,3.58-14.99,2.14-3.07,5.78-4.73,9.45-4.95M214.89,128.04c-.16,12.18.09,24.36-.12,36.53-18.22,0-36.44-.05-54.66.03-.27-6.11.03-12.23-.18-18.34-18.24.04-36.49-.02-54.74.04-.07,18.26-.05,36.52-.01,54.79,18.26.13,36.52.08,54.78.02.13-6.07-.04-12.14.07-18.22,10.53,0,21.08-.25,31.6.14-1.63,1.24-3.3,2.41-5.03,3.5-36.42,23.18-60.66,64.37-62.9,107.52-.05,4.45-1.16,9.62,1.86,13.39,3.18,4.09,9.91,4.38,13.46.61,2.72-2.6,2.72-6.62,2.86-10.11.36-14.89,3.8-29.66,9.76-43.3,12.08-27.88,35.12-50.85,63.19-62.55.08,9.09-.06,18.19.05,27.28,30.45.11,60.9.12,91.35,0,.13-9.1-.04-18.19.08-27.28,14.81,6.27,28.39,15.52,39.53,27.14,20.54,21.21,32.92,50.22,33.48,79.79-.06,4.07.99,8.86,5.09,10.71,5.55,3.14,13.32-1.32,13.19-7.78.32-30.83-10.79-61.46-29.99-85.5-10.51-13.45-23.85-24.38-38.25-33.43,10.57-.37,21.16-.13,31.74-.13.15,6.06-.03,12.12.08,18.18,18.26.16,36.52.09,54.78.04.05-18.28.1-36.56-.02-54.84-18.25.02-36.49-.02-54.74.02-.21,6.1.21,12.21-.25,18.3-18.2-.06-36.41,0-54.62-.03-.18-12.17.05-24.35-.1-36.52-30.44-.06-60.9-.07-91.34,0Z"/>
    <path class="st0" d="M233.21,146.29c18.24-.04,36.48,0,54.72-.03.14,18.28.08,36.57.03,54.85-18.26.03-36.53.16-54.79-.07,0-18.25-.07-36.5.04-54.75Z"/>
    <path class="st0" d="M123.49,164.61c6.09.06,12.21-.36,18.29.23-.1,5.98,0,11.97-.06,17.95-6.05.12-12.09.03-18.14.08-.3-6.08-.15-12.17-.09-18.26Z"/>
    <path class="st0" d="M379.49,164.61c6.09.06,12.2-.35,18.28.21-.09,5.99,0,11.98-.06,17.98-6.03.11-12.07,0-18.1.08-.38-6.08-.15-12.18-.12-18.27Z"/>
  </g>
  <g id="_x23_d9d7caff">
    <path class="st2" d="M343.24,1.69c16.5,16.15,32.68,32.65,49.07,48.93,19.58,19.71,39.41,39.19,58.85,59.04-36.01.22-72.03.13-108.04.05-.5-6.57-.17-13.16-.25-19.74.01-21.35-.01-42.7,0-64.05.08-8.07-.25-16.16.37-24.23Z"/>
    <path class="st2" d="M59.38,501.64v-1.12c.95,3.67,3.06,6.91,5.89,9.41-2.93-1.82-5.91-4.55-5.89-8.29Z"/>
    <path class="st2" d="M452.62,500.51v1.11c.02,3.75-2.97,6.5-5.92,8.33,2.85-2.5,4.97-5.75,5.92-9.44Z"/>
  </g>
  <g id="_x23_c8bdb8ff">
    <path class="st3" d="M214.89,128.04c30.44-.07,60.9-.06,91.34,0,.15,12.17-.08,24.35.1,36.52,18.21.02,36.42-.03,54.62.03.46-6.09.04-12.2.25-18.3,18.25-.04,36.49,0,54.74-.02.12,18.28.07,36.56.02,54.84-18.26.05-36.52.12-54.78-.04-.11-6.06.07-12.12-.08-18.18-10.58,0-21.17-.24-31.74.13,14.4,9.05,27.74,19.98,38.25,33.43,19.2,24.04,30.31,54.67,29.99,85.5.13,6.46-7.64,10.92-13.19,7.78-4.1-1.85-5.15-6.64-5.09-10.71-.56-29.57-12.94-58.58-33.48-79.79-11.14-11.62-24.72-20.87-39.53-27.14-.12,9.09.05,18.18-.08,27.28-30.45.12-60.9.11-91.35,0-.11-9.09.03-18.19-.05-27.28-28.07,11.7-51.11,34.67-63.19,62.55-5.96,13.64-9.4,28.41-9.76,43.3-.14,3.49-.14,7.51-2.86,10.11-3.55,3.77-10.28,3.48-13.46-.61-3.02-3.77-1.91-8.94-1.86-13.39,2.24-43.15,26.48-84.34,62.9-107.52,1.73-1.09,3.4-2.26,5.03-3.5-10.52-.39-21.07-.14-31.6-.14-.11,6.08.06,12.15-.07,18.22-18.26.06-36.52.11-54.78-.02-.04-18.27-.06-36.53.01-54.79,18.25-.06,36.5,0,54.74-.04.21,6.11-.09,12.23.18,18.34,18.22-.08,36.44-.03,54.66-.03.21-12.17-.04-24.35.12-36.53M233.21,146.29c-.11,18.25-.05,36.5-.04,54.75,18.26.23,36.53.1,54.79.07.05-18.28.11-36.57-.03-54.85-18.24.03-36.48,0-54.72.03M123.49,164.61c-.06,6.09-.21,12.18.09,18.26,6.05-.05,12.09.04,18.14-.08.05-5.98-.04-11.97.06-17.95-6.08-.59-12.2-.17-18.29-.23M379.49,164.61c-.03,6.09-.26,12.19.12,18.27,6.03-.07,12.07.03,18.1-.08.06-6-.03-11.99.06-17.98-6.08-.56-12.19-.15-18.28-.21Z"/>
  </g>
  <g id="_x23_e57e25ff">
    <path class="st4" d="M59.49,356.56h393.02c.17,47.98-.06,95.97.11,143.95-.95,3.69-3.07,6.94-5.92,9.44-1.44.86-3.02,1.44-4.57,2.05H69.89c-1.58-.61-3.17-1.19-4.62-2.07-2.83-2.5-4.94-5.74-5.89-9.41.16-47.99-.06-95.97.11-143.96M150.69,398.73c-9.03,8.54-10.09,24.72-.99,33.59,7.89,8.5,19.93,10.98,28.52,18.5,7.05,5.92,4.08,19.25-4.96,21.42-9.45,2.45-19.27-.83-27.95-4.53-.88,3.56-1.74,7.12-2.62,10.69,6.6,5.08,15.17,6.49,23.3,6.6,7.52.1,15.33-1.91,21.16-6.84,6.44-5.3,9.97-13.97,8.73-22.26-.6-8.64-7.13-15.5-14.45-19.39-7.58-4.55-17.45-6.56-22.44-14.47-4.1-7.21,1.69-16.21,9.21-17.85,6.09-1.19,12.9-1.05,18.26,2.46,2.13-3.66,4.02-7.45,5.86-11.25-5.6-3.09-12.04-4.03-18.33-4.35-8.34-.56-17.21,1.73-23.3,7.68M317.67,399.66c-9.81,8.41-13.85,21.69-14.35,34.24-.66,12.95,1.38,26.83,9.39,37.43,6.07,8.23,16.04,13.23,26.21,13.65,11.92.71,25.02-2.83,32.9-12.28-.01-11.88,0-23.76,0-35.63-10.17-.01-20.34-.02-30.51,0-.01,3.41-.01,6.83.02,10.25,5.2-.01,10.4-.01,15.6-.01-.06,7.56.14,15.13-.08,22.69-1.26,1.93-3.76,2.37-5.83,2.96-6.15,1.33-13.06,2.15-18.75-1.14-7.16-3.96-10.85-11.96-12.43-19.67-2.05-10.33-2.03-21.22.87-31.39,2.06-6.91,6.55-13.75,13.67-16.15,7.67-2.8,16.98-.86,22.28,5.53,3.52-2.99,6.92-6.13,10.39-9.19-13.03-12.67-35.75-13.32-49.38-1.29M207.79,392.44c9.57,30.85,19.1,61.72,28.62,92.58,6.51.08,13.02.03,19.52.04,10-30.87,20.03-61.74,29.99-92.62-5.66-.01-11.31,0-16.96-.01-7.59,26.51-15.1,53.04-22.66,79.55-7.09-26.53-14.23-53.04-21.38-79.55-5.71.01-11.42,0-17.13.01Z"/>
  </g>
  <g id="_x23_ffffffff">
    <path class="st1" d="M150.69,398.73c6.09-5.95,14.96-8.24,23.3-7.68,6.29.32,12.73,1.26,18.33,4.35-1.84,3.8-3.73,7.59-5.86,11.25-5.36-3.51-12.17-3.65-18.26-2.46-7.52,1.64-13.31,10.64-9.21,17.85,4.99,7.91,14.86,9.92,22.44,14.47,7.32,3.89,13.85,10.75,14.45,19.39,1.24,8.29-2.29,16.96-8.73,22.26-5.83,4.93-13.64,6.94-21.16,6.84-8.13-.11-16.7-1.52-23.3-6.6.88-3.57,1.74-7.13,2.62-10.69,8.68,3.7,18.5,6.98,27.95,4.53,9.04-2.17,12.01-15.5,4.96-21.42-8.59-7.52-20.63-10-28.52-18.5-9.1-8.87-8.04-25.05.99-33.59Z"/>
    <path class="st1" d="M317.67,399.66c13.63-12.03,36.35-11.38,49.38,1.29-3.47,3.06-6.87,6.2-10.39,9.19-5.3-6.39-14.61-8.33-22.28-5.53-7.12,2.4-11.61,9.24-13.67,16.15-2.9,10.17-2.92,21.06-.87,31.39,1.58,7.71,5.27,15.71,12.43,19.67,5.69,3.29,12.6,2.47,18.75,1.14,2.07-.59,4.57-1.03,5.83-2.96.22-7.56.02-15.13.08-22.69-5.2,0-10.4,0-15.6.01-.03-3.42-.03-6.84-.02-10.25,10.17-.02,20.34-.01,30.51,0,0,11.87-.01,23.75,0,35.63-7.88,9.45-20.98,12.99-32.9,12.28-10.17-.42-20.14-5.42-26.21-13.65-8.01-10.6-10.05-24.48-9.39-37.43.5-12.55,4.54-25.83,14.35-34.24Z"/>
    <path class="st1" d="M207.79,392.44c5.71-.01,11.42,0,17.13-.01,7.15,26.51,14.29,53.02,21.38,79.55,7.56-26.51,15.07-53.04,22.66-79.55,5.65.01,11.3,0,16.96.01-9.96,30.88-19.99,61.75-29.99,92.62-6.5-.01-13.01.04-19.52-.04-9.52-30.86-19.05-61.73-28.62-92.58Z"/>
  </g>
</svg>