<?xml version="1.0" encoding="UTF-8"?>
<svg id="Layer_1" xmlns="http://www.w3.org/2000/svg" version="1.1" viewBox="0 0 512 512">
  <!-- Generator: Adobe Illustrator 30.0.0, SVG Export Plug-In . SVG Version: 2.1.1 Build 123)  -->
  <defs>
    <style>
      .st0 {
        fill: #fff;
      }

      .st1 {
        fill: #35bd73;
      }

      .st2 {
        fill: #135431;
      }

      .st3 {
        fill: #d9ffeb;
      }

      .st4 {
        fill: #229456;
      }
    </style>
  </defs>
  <g id="_x23_35bd73ff">
    <path class="st1" d="M66.65,0h296.4l-.03.21c-.43,2.58-.42,5.19-.36,7.79.03,32.82-.02,65.65.03,98.47,34.26,34.33,68.57,68.61,102.86,102.91,1.18,1.1,2.52,2.01,3.86,2.92-.27,12.03.16,24.08-.22,36.12-142.12-.08-284.26-.07-426.38,0-.34-14.21-.03-28.42-.16-42.63.07-59.9-.04-119.8.05-179.7-.03-13.19,11.08-24.52,23.95-26.08M93.32,103.5c-4.99,1.17-8.56,6.34-7.9,11.42.42,5.31,5.35,9.68,10.66,9.52,42.3.05,84.59.02,126.89,0,5.8.37,11.16-4.66,11.12-10.47.26-5.95-5.19-11.2-11.11-10.83-41.66-.05-83.33.01-124.99-.03-1.56.02-3.14.02-4.67.38M92.3,144.47c-5.05,1.73-8.07,7.62-6.58,12.74,1.21,4.94,6.27,8.3,11.28,7.92,74.33-.02,148.65.05,222.98-.03,5.88.16,11.07-5.26,10.64-11.13-.1-5.52-5.11-10.33-10.64-10.15-74.34-.05-148.68,0-223.01-.02-1.58.03-3.19.09-4.67.67M94.46,184.57c-5.42.62-9.66,5.99-9.06,11.4.3,5.37,5.23,9.9,10.6,9.74,74.69.03,149.37.04,224.06,0,6.04.18,11.3-5.64,10.53-11.64-.38-5.7-5.87-10.09-11.48-9.66-44.38-.02-88.77,0-133.15-.01-30.49.12-61.01-.23-91.5.17Z"/>
    <path class="st1" d="M42.67,440.42c142.22-.07,284.44-.07,426.66-.01,0,14.87.02,29.74,0,44.61.13,8.86-4.5,17.56-11.92,22.4-3.59,2.49-7.84,3.71-12.07,4.58H66.86c-12.58-1.42-23.61-12.16-24.11-25.02-.2-15.52-.03-31.04-.08-46.56Z"/>
  </g>
  <g id="_x23_d9ffebff">
    <path class="st3" d="M363.02.21c25.49,25.41,50.91,50.89,76.37,76.33,9.42,9.16,18.33,18.88,28.05,27.71.11.78.23,1.56.34,2.34-35.03-.26-70.06-.03-105.09-.12-.05-32.82,0-65.65-.03-98.47-.06-2.6-.07-5.21.36-7.79Z"/>
    <path class="st3" d="M93.32,103.5c1.53-.36,3.11-.36,4.67-.38,41.66.04,83.33-.02,124.99.03,5.92-.37,11.37,4.88,11.11,10.83.04,5.81-5.32,10.84-11.12,10.47-42.3.01-84.59.04-126.89,0-5.31.16-10.24-4.21-10.66-9.52-.66-5.08,2.91-10.25,7.9-11.42Z"/>
    <path class="st3" d="M92.3,144.47c1.48-.58,3.09-.64,4.67-.67,74.33.03,148.67-.03,223.01.02,5.53-.18,10.54,4.63,10.64,10.15.43,5.87-4.76,11.29-10.64,11.13-74.33.08-148.65,0-222.98.03-5.01.38-10.07-2.98-11.28-7.92-1.49-5.12,1.53-11.01,6.58-12.74Z"/>
    <path class="st3" d="M94.46,184.57c30.49-.4,61.01-.05,91.5-.17,44.38.01,88.77,0,133.15.01,5.61-.43,11.1,3.96,11.48,9.66.77,6-4.49,11.82-10.53,11.64-74.69.04-149.37.03-224.06,0-5.37.16-10.3-4.37-10.6-9.74-.6-5.41,3.64-10.78,9.06-11.4Z"/>
  </g>
  <g id="_x23_229456ff">
    <path class="st4" d="M467.44,104.25c.63.23,1.28.48,1.92.73.52,33.63.03,67.29.25,100.93,0,2.13-.11,4.26-.2,6.39-1.34-.91-2.68-1.82-3.86-2.92-34.29-34.3-68.6-68.58-102.86-102.91,35.03.09,70.06-.14,105.09.12-.11-.78-.23-1.56-.34-2.34Z"/>
    <path class="st4" d="M42.81,248.41c142.12-.06,284.26-.07,426.38,0,14.27.21,28.54.22,42.81-.02v192.03c-14.22-.02-28.45.02-42.67-.02-142.22-.06-284.44-.06-426.66.01-14.22.02-28.45,0-42.67,0v-192.06c14.26.3,28.54.25,42.81.04M291.52,286.71c-10.63,1.57-21.62,5.78-28.32,14.57-8.19,10.49-7.03,26.75,2.22,36.23,9.77,10.38,23.99,14.19,36.9,19.04,4.46,1.91,9.5,3.67,12.41,7.81,2.73,4.43,2.5,11.14-1.76,14.56-3.59,2.92-8.46,3.44-12.92,3.22-4.82-.19-10.06-1.02-13.73-4.43-3.62-3.4-4.46-8.59-4.62-13.32-9.15.02-18.3,0-27.45,0-.05,8.59,2.81,17.29,8.63,23.71,7.49,8.21,18.39,12.48,29.2,14.04,9.59,1.23,19.54.87,28.84-1.94,8.84-2.69,17.24-8.59,20.79-17.39,4.28-10.85,2.45-24.28-5.68-32.88-7.96-8.73-19.38-12.97-30.3-16.65-6.07-2.17-12.53-4.11-17.47-8.43-2.97-2.5-4.17-6.83-2.56-10.43,2.01-4.84,7.39-7.21,12.34-7.59,5.42-.55,11.61.43,15.36,4.75,2.43,2.62,3.01,6.26,3.29,9.69,9.09-.03,18.19.01,27.29-.03.11-10.41-4.92-20.71-13.43-26.77-11.14-8.12-25.72-9.59-39.03-7.77M61.65,287.55c10.54,18.82,21.16,37.59,31.7,56.41-10.83,19.12-21.74,38.19-32.53,57.33,10.47.12,20.94-.03,31.42.08,6.57-12.77,12.71-25.76,19.29-38.53,6.39,12.85,12.67,25.75,19.2,38.53,10.51-.09,21.02.01,31.52-.05-10.87-19.13-21.77-38.24-32.65-57.36,10.57-18.8,21.19-37.58,31.77-56.39-10.45-.07-20.89-.04-31.33-.01-6.11,12.56-12.36,25.06-18.46,37.63-6.53-12.38-12.42-25.11-18.68-37.64-10.41-.03-20.83-.03-31.25,0M171.15,287.58c.01,37.91.01,75.81,0,113.71,25.05.05,50.11.02,75.16.02,0-7.04.06-14.08-.04-21.11-15.89.03-31.79,0-47.68,0-.06-30.89.08-61.78-.07-92.67-9.12.08-18.25-.02-27.37.05M350.63,287.55c10.55,18.82,21.16,37.6,31.7,56.42-10.83,19.1-21.73,38.17-32.52,57.3,10.48.16,20.96,0,31.44.09,6.55-12.77,12.63-25.77,19.29-38.47,6.38,12.84,12.64,25.74,19.2,38.49,10.49-.12,20.98.02,31.47-.07-10.84-19.14-21.77-38.23-32.63-57.36,10.57-18.81,21.2-37.58,31.77-56.39-10.44-.05-20.87-.03-31.31-.01-6.3,12.49-12.09,25.27-18.72,37.58-6.12-12.54-12.31-25.04-18.43-37.58-10.42-.04-20.84-.02-31.26,0Z"/>
  </g>
  <g id="_x23_135431ff">
    <path class="st2" d="M.38,248.12c14.03-14.17,28.21-28.2,42.27-42.34.13,14.21-.18,28.42.16,42.63-14.14-.36-28.29.2-42.43-.29Z"/>
    <path class="st2" d="M469.41,212.3c.09-2.13.2-4.26.2-6.39,13.89,14.2,28.11,28.09,42.07,42.23-14.16.44-28.33-.08-42.49.28.38-12.04-.05-24.09.22-36.12Z"/>
  </g>
  <g id="_x23_ffffffff">
    <path class="st0" d="M291.52,286.71c13.31-1.82,27.89-.35,39.03,7.77,8.51,6.06,13.54,16.36,13.43,26.77-9.1.04-18.2,0-27.29.03-.28-3.43-.86-7.07-3.29-9.69-3.75-4.32-9.94-5.3-15.36-4.75-4.95.38-10.33,2.75-12.34,7.59-1.61,3.6-.41,7.93,2.56,10.43,4.94,4.32,11.4,6.26,17.47,8.43,10.92,3.68,22.34,7.92,30.3,16.65,8.13,8.6,9.96,22.03,5.68,32.88-3.55,8.8-11.95,14.7-20.79,17.39-9.3,2.81-19.25,3.17-28.84,1.94-10.81-1.56-21.71-5.83-29.2-14.04-5.82-6.42-8.68-15.12-8.63-23.71,9.15,0,18.3.01,27.45,0,.16,4.73,1,9.92,4.62,13.32,3.67,3.41,8.91,4.24,13.73,4.43,4.46.22,9.33-.3,12.92-3.22,4.26-3.42,4.49-10.13,1.76-14.56-2.91-4.14-7.95-5.9-12.41-7.81-12.91-4.85-27.13-8.66-36.9-19.04-9.25-9.48-10.41-25.74-2.22-36.23,6.7-8.79,17.69-13,28.32-14.57Z"/>
    <path class="st0" d="M61.65,287.55c10.42-.03,20.84-.03,31.25,0,6.26,12.53,12.15,25.26,18.68,37.64,6.1-12.57,12.35-25.07,18.46-37.63,10.44-.03,20.88-.06,31.33.01-10.58,18.81-21.2,37.59-31.77,56.39,10.88,19.12,21.78,38.23,32.65,57.36-10.5.06-21.01-.04-31.52.05-6.53-12.78-12.81-25.68-19.2-38.53-6.58,12.77-12.72,25.76-19.29,38.53-10.48-.11-20.95.04-31.42-.08,10.79-19.14,21.7-38.21,32.53-57.33-10.54-18.82-21.16-37.59-31.7-56.41Z"/>
    <path class="st0" d="M171.15,287.58c9.12-.07,18.25.03,27.37-.05.15,30.89,0,61.78.07,92.67,15.89,0,31.79.03,47.68,0,.1,7.03.03,14.07.04,21.11-25.05,0-50.11.03-75.16-.02.01-37.9.01-75.8,0-113.71Z"/>
    <path class="st0" d="M350.63,287.55c10.42-.02,20.84-.04,31.26,0,6.12,12.54,12.31,25.04,18.43,37.58,6.63-12.31,12.42-25.09,18.72-37.58,10.44-.02,20.87-.04,31.31.01-10.57,18.81-21.2,37.58-31.77,56.39,10.86,19.13,21.79,38.22,32.63,57.36-10.49.09-20.98-.05-31.47.07-6.56-12.75-12.82-25.65-19.2-38.49-6.66,12.7-12.74,25.7-19.29,38.47-10.48-.1-20.96.07-31.44-.09,10.79-19.13,21.69-38.2,32.52-57.3-10.54-18.82-21.15-37.6-31.7-56.42Z"/>
  </g>
</svg>