<?xml version="1.0" encoding="UTF-8"?>
<svg id="Layer_1" xmlns="http://www.w3.org/2000/svg" version="1.1" viewBox="0 0 512 551">
  <!-- Generator: Adobe Illustrator 30.0.0, SVG Export Plug-In . SVG Version: 2.1.1 Build 123)  -->
  <defs>
    <style>
      .st0 {
        fill: #2d4f69;
      }

      .st1 {
        fill: #365e7d;
      }

      .st2 {
        fill: #ffe07d;
      }

      .st3 {
        fill: #fff;
      }

      .st4 {
        fill: #7789a4;
      }

      .st5 {
        fill: #ccbf8a;
      }

      .st6 {
        fill: #e6c968;
      }

      .st7 {
        fill: #f7f9f9;
      }

      .st8 {
        fill: #7889a3;
      }
    </style>
  </defs>
  <g id="_x23_ffe07dff">
    <path class="st2" d="M39.14,0h179.24c30.2,29.44,60.27,59.01,90.45,88.47h157.18c6.68-.15,13.54.1,19.81,2.66,14.69,5.48,25.34,20.26,25.67,35.96.17,27.28-.07,54.57.12,81.85-6.16-.28-12.32-.07-18.48-.15-.22-6.91.3-13.86-.25-20.74-1.57-2.44-5.25-.99-7.69-1.39.17-15.9.01-31.79.08-47.69.02-3.6-.03-7.33-1.52-10.68-2.54-6.19-8.46-10.89-15.11-11.78-2.86-.36-5.75-.23-8.62-.24-137.68.01-275.36,0-413.04,0-7.96-.38-15.76,4.66-18.75,12.02-1.91,4.32-1.44,9.14-1.49,13.74.07,11.47-.13,22.95.1,34.43-9.01-.72-18.35,3.51-22.99,11.41-1.7,2.24-1.79,5.29-3.66,7.4.3-52.08,0-104.16.16-156.23.17-10.09,4.43-20,11.56-27.12C19.01,4.63,28.99.33,39.14,0Z"/>
    <path class="st2" d="M210.2,233.38c5.37.42,10.9-.45,16.19.44.03,6.59-.15,13.2.07,19.79.55,2.36,3.69,1.65,5.51,1.81,4.93-.27,9.99.5,14.84-.43.25-.3.73-.89.97-1.18.32-6.85-.17-13.72.24-20.56,5.3,0,10.61.04,15.92-.02.5,6.83-.08,13.7.28,20.53.21.32.63.94.84,1.25,5.25.87,10.65.17,15.96.41,1.55-.08,4.17.21,4.46-1.88.22-6.68-.06-13.36.12-20.04,5.46-.06,10.94-.17,16.41.06.11,7.02-.41,14.09.26,21.09,3.07,1.31,6.49.57,9.73.75,3.65-.16,7.41.48,10.98-.55,1.13-7.06.23-14.37.47-21.52,5.42-.14,10.84-.06,16.27-.05.15,6.9-.2,13.81.16,20.69.28.29.85.87,1.14,1.15,3.61.6,7.3.15,10.95.28,2.93-.1,5.97.4,8.8-.6,1.18-7.03-.07-14.29.65-21.39,5.38.11,10.76.03,16.15.05.04,6.51-.08,13.02.04,19.52-.17,2.88,3.46,2.37,5.36,2.44,5.23-.4,10.7.8,15.77-.76.83-7.1,0-14.3.44-21.44,5.25.05,10.5.07,15.75,0,1.16,6.88-.27,14.14.7,21.07.36.23,1.07.69,1.43.92,4.95.46,9.95.06,14.92.21,1.57-.11,4.14.3,4.69-1.7.51-6.75-.52-13.64.5-20.33,5.15.15,10.3.05,15.45.06.17,6.83-.17,13.66.16,20.48,1.46,2.39,4.87,1.16,7.2,1.48,4.58-.32,9.34.7,13.78-.68.91-7.1.1-14.32.43-21.46,5.36-.04,10.72.04,16.09-.05.51,5.91.1,11.88.2,17.81.15,1.22-.36,2.82.74,3.74,1.44.86,3.2.56,4.8.65,5.2-.11,10.41.2,15.6-.27-.17,29.6-.03,59.21-.07,88.81.09,14.24-.23,28.48.24,42.71-1.64,1.29-2.15,3.33-2.9,5.17-5.5,14.56-20.17,25.44-35.89,25.46-9.43,0-18.87.26-28.3-.11-.18-9.05,1.06-18.56-2.8-27.07-5.16-12.6-18.3-21.27-31.92-21.16-102.31-.06-204.63,0-306.95-.02-7.87-.11-15.79,2.31-22.03,7.16-8.09,6.08-13.22,15.86-13.64,25.96-.16,5.02-.04,10.05-.06,15.07-9.07.48-18.16.04-27.24.24-15.26.23-29.84-9.59-36.08-23.38-1.2-2.49-1.61-5.48-3.83-7.34.31-43.82.17-87.65.07-131.47,1.02.03,3.07.08,4.09.11,5.14,7.15,13.91,11.11,22.67,10.38,16.68-.04,33.36.04,50.04-.03,7.4.02,14.7-3.61,19.08-9.59,3.83-4.99,5.08-11.46,4.67-17.64,4.22.83,8.42,1.75,12.65,2.56.26,4.4-.35,8.89.29,13.23,2.41,2.24,6.22.8,9.22,1.2,3.77-.44,8.09.99,11.49-.93,1.03-2.73.17-5.9.49-8.8.55.04,1.64.13,2.18.17,4.56,1.03,9.15,1.93,13.72,2.91.18,2.19-1.13,6.34,2.21,6.56,4.34.24,8.7.01,13.04.11,1.85-.1,3.88.27,5.58-.67,1.08-1.65.48-3.75.61-5.6,6.74-2.39,12.68-7.1,16.22-13.34.38,6.32-.6,12.79.54,19.03,4.54,1.16,9.3.3,13.94.57,2.24-.31,5.6.87,6.95-1.5.43-6.83-.18-13.7.3-20.53Z"/>
  </g>
  <g id="_x23_f7f9f9ff">
    <path class="st7" d="M28.23,128.29c2.99-7.36,10.79-12.4,18.75-12.02,137.68,0,275.36.01,413.04,0,2.87.01,5.76-.12,8.62.24,6.65.89,12.57,5.59,15.11,11.78,1.49,3.35,1.54,7.08,1.52,10.68-.07,15.9.09,31.79-.08,47.69-4.04.16-8.11-.3-12.11.26-1.89.39-1.4,2.63-1.49,4.02.04,5.93-.03,11.86.05,17.8-5.21.15-10.41,0-15.61.08-.3-6.9.07-13.81-.19-20.71-2.6-3.07-7.36-1.09-10.86-1.65-3.5.56-8.35-1.45-10.86,1.69-.24,6.88.11,13.79-.17,20.68-5.3-.03-10.6-.05-15.9,0-.5-7.11.55-14.4-.53-21.39-.39-.17-1.15-.5-1.54-.66-5.96-.14-11.97-.3-17.91.08-.35.22-1.03.67-1.38.9-.79,6.97.41,14.19-.58,21.09-5.3-.13-10.6,0-15.89-.09-.22-7.18.48-14.44-.38-21.58-4.76-1.52-9.89-.38-14.81-.74-2.15.18-5.72-.71-6.55,2.01-.39,6.78.28,13.62-.32,20.38-5.28-.13-10.57.1-15.84-.14,0-6.87.19-13.76-.09-20.62-1.25-2.14-4.16-1.19-6.18-1.42-4.9.33-9.95-.66-14.73.6-1.11,7.09-.08,14.4-.54,21.57-5.28-.05-10.56-.03-15.83,0-.49-6.83.08-13.7-.27-20.54-1.48-2.76-5.18-1.56-7.7-1.83-4.56.34-9.34-.77-13.74.77-.59,7.18-.02,14.41-.29,21.61-5.37-.06-10.74,0-16.1-.03-.28-6.84.1-13.7-.19-20.53-.22-.29-.67-.87-.89-1.16-4.82-1.01-9.89-.16-14.8-.45-1.86.21-4.83-.66-5.64,1.64-.39,6.84.34,13.74-.36,20.54-5.3-.07-10.61-.04-15.91,0-.43-7.15.52-14.47-.47-21.51-4.21-1.83-9.05-.45-13.52-.88-2.56.27-6.25-.93-7.83,1.8-.31,6.85.25,13.73-.26,20.58-5.28-.07-10.56.03-15.84-.06-.26-7.14.56-14.39-.43-21.46-2.77-1.1-5.8-.5-8.69-.64-3.63.14-7.31-.32-10.9.25-2.17.63-1.36,3.41-1.4,5.07-4.16-.86-8.48-.86-12.63.06-.77.12-2.31.36-3.09.48-.11-2.15.79-5.67-2.33-5.95-4.92-.29-9.85-.03-14.78-.13-1.66,0-3.87-.03-4.71,1.74-.2,3-.04,6.02-.05,9.03-4.69.92-9.36,1.91-14.02,2.93-.53.06-1.59.18-2.12.24-.09-4.08.19-8.17-.1-12.24-.25-.28-.73-.85-.98-1.13-5.99-.73-12.13-.28-18.18-.23-4.48-6.27-11.91-10.38-19.69-10.3-16.73-.07-33.46,0-50.2-.03-.23-11.48-.03-22.96-.1-34.43.05-4.6-.42-9.42,1.49-13.74Z"/>
    <path class="st7" d="M153.7,207.19c4.15-3.78,10.81-3.73,15.9-1.81l.04.6c0,.69-.02,2.09-.02,2.78-5.14.08-10.27.04-15.41.05-.13-.41-.39-1.22-.51-1.62Z"/>
  </g>
  <g id="_x23_2d4f69ff">
    <path class="st0" d="M26.84,176.46c16.74.03,33.47-.04,50.2.03,7.78-.08,15.21,4.03,19.69,10.3,1.7,2.76,2.97,5.8,3.6,8.99-.01,2.66,0,5.34-.43,7.97-4.12.84-8.23,2.43-12.48,2.1-.32-3.08-1.89-6.71-5.44-6.95-7.63-.25-15.3-.1-22.94-.05-3.3-.2-6.41,2.75-6.02,6.11-.04,10.7,0,21.41-.03,32.12-.35,3.33,2.75,6.25,6.01,6.14,5.99.09,11.99.02,17.99.06,2.85-.15,6.31.49,8.55-1.72,1.67-1.43.86-4.35,2.55-5.6,4.33.18,8.43,1.73,12.68,2.45.41,6.18-.84,12.65-4.67,17.64-4.38,5.98-11.68,9.61-19.08,9.59-16.68.07-33.36-.01-50.04.03-8.76.73-17.53-3.23-22.67-10.38-1.97-3.47-3.56-7.26-3.78-11.29-.47-11.48.49-23.03-.5-34.47.09-4.76-.13-9.52.16-14.26,1.87-2.11,1.96-5.16,3.66-7.4,4.64-7.9,13.98-12.13,22.99-11.41Z"/>
  </g>
  <g id="_x23_7789a4ff">
    <path class="st4" d="M132.18,188.19c.84-1.77,3.05-1.75,4.71-1.74,4.93.1,9.86-.16,14.78.13,3.12.28,2.22,3.8,2.33,5.95.78-.12,2.32-.36,3.09-.48-8.29,1.8-16.67,3.3-24.96,5.17,0-3.01-.15-6.03.05-9.03Z"/>
    <path class="st4" d="M207.24,188.25c1.58-2.73,5.27-1.53,7.83-1.8,4.47.43,9.31-.95,13.52.88.99,7.04.04,14.36.47,21.51,5.3-.04,10.61-.07,15.91,0,.7-6.8-.03-13.7.36-20.54.81-2.3,3.78-1.43,5.64-1.64,4.91.29,9.98-.56,14.8.45.22.29.67.87.89,1.16.29,6.83-.09,13.69.19,20.53,5.36.02,10.73-.03,16.1.03.27-7.2-.3-14.43.29-21.61,4.4-1.54,9.18-.43,13.74-.77,2.52.27,6.22-.93,7.7,1.83.35,6.84-.22,13.71.27,20.54,5.27-.02,10.55-.04,15.83,0,.46-7.17-.57-14.48.54-21.57,4.78-1.26,9.83-.27,14.73-.6,2.02.23,4.93-.72,6.18,1.42.28,6.86.09,13.75.09,20.62,5.27.24,10.56.01,15.84.14.6-6.76-.07-13.6.32-20.38.83-2.72,4.4-1.83,6.55-2.01,4.92.36,10.05-.78,14.81.74.86,7.14.16,14.4.38,21.58,5.29.1,10.59-.04,15.89.09.99-6.9-.21-14.12.58-21.09.35-.23,1.03-.68,1.38-.9,5.94-.38,11.95-.22,17.91-.08.39.16,1.15.49,1.54.66,1.08,6.99.03,14.28.53,21.39,5.3-.06,10.6-.04,15.9,0,.28-6.89-.07-13.8.17-20.68,2.51-3.14,7.36-1.13,10.86-1.69,3.5.56,8.26-1.42,10.86,1.65.26,6.9-.11,13.81.19,20.71,5.2-.07,10.4.07,15.61-.08-.08-5.94-.01-11.87-.05-17.8.09-1.39-.4-3.63,1.49-4.02,4-.56,8.07-.1,12.11-.26,2.44.4,6.12-1.05,7.69,1.39.55,6.88.03,13.83.25,20.74,6.16.08,12.32-.13,18.48.15.09.33.29,1,.39,1.33v43.52c-.1.34-.29,1.02-.38,1.36-5.19.47-10.4.16-15.6.27-1.6-.09-3.36.21-4.8-.65-1.1-.92-.59-2.52-.74-3.74-.1-5.93.31-11.9-.2-17.81-5.37.09-10.73,0-16.09.05-.33,7.14.48,14.36-.43,21.46-4.44,1.38-9.2.36-13.78.68-2.33-.32-5.74.91-7.2-1.48-.33-6.82.01-13.65-.16-20.48-5.15,0-10.3.09-15.45-.06-1.02,6.69,0,13.58-.5,20.33-.55,2-3.12,1.59-4.69,1.7-4.97-.15-9.97.25-14.92-.21-.36-.23-1.07-.69-1.43-.92-.97-6.93.46-14.19-.7-21.07-5.25.07-10.5.05-15.75,0-.44,7.14.39,14.34-.44,21.44-5.07,1.56-10.54.36-15.77.76-1.9-.07-5.53.44-5.36-2.44-.12-6.5,0-13.01-.04-19.52-5.39-.02-10.77.06-16.15-.05-.72,7.1.53,14.36-.65,21.39-2.83,1-5.87.5-8.8.6-3.65-.13-7.34.32-10.95-.28-.29-.28-.86-.86-1.14-1.15-.36-6.88-.01-13.79-.16-20.69-5.43,0-10.85-.09-16.27.05-.24,7.15.66,14.46-.47,21.52-3.57,1.03-7.33.39-10.98.55-3.24-.18-6.66.56-9.73-.75-.67-7-.15-14.07-.26-21.09-5.47-.23-10.95-.12-16.41-.06-.18,6.68.1,13.36-.12,20.04-.29,2.09-2.91,1.8-4.46,1.88-5.31-.24-10.71.46-15.96-.41-.21-.31-.63-.93-.84-1.25-.36-6.83.22-13.7-.28-20.53-5.31.06-10.62.02-15.92.02-.41,6.84.08,13.71-.24,20.56-.24.29-.72.88-.97,1.18-4.85.93-9.91.16-14.84.43-1.82-.16-4.96.55-5.51-1.81-.22-6.59-.04-13.2-.07-19.79-5.29-.89-10.82-.02-16.19-.44-.48,6.83.13,13.7-.3,20.53-1.35,2.37-4.71,1.19-6.95,1.5-4.64-.27-9.4.59-13.94-.57-1.14-6.24-.16-12.71-.54-19.03,3.48-5.92,4.72-13.07,3.56-19.82-1.67-11.56-11.09-21.19-22.31-24,.04-1.66-.77-4.44,1.4-5.07,3.59-.57,7.27-.11,10.9-.25,2.89.14,5.92-.46,8.69.64.99,7.07.17,14.32.43,21.46,5.28.09,10.56-.01,15.84.06.51-6.85-.05-13.73.26-20.58Z"/>
    <path class="st4" d="M96.73,186.79c6.05-.05,12.19-.5,18.18.23.25.28.73.85.98,1.13.29,4.07.01,8.16.1,12.24.53-.06,1.59-.18,2.12-.24-5.67,1.22-11.39,2.16-17.02,3.55-.15-2.65-.21-5.32-.76-7.92-.63-3.19-1.9-6.23-3.6-8.99Z"/>
    <path class="st4" d="M169.64,205.98c11.35,3.34,13.53,20.37,4.63,27.66-.86-1.45-2.62-.28-2.35,1.14-.66,1.79-3.16,1.94-4.74,2.63-8.88,2.58-18.99-3.57-20.79-12.63-1.49-6.5,1.14-14.49,7.31-17.59.12.4.38,1.21.51,1.62,5.14,0,10.27.03,15.41-.05,0-.69.02-2.09.02-2.78Z"/>
    <path class="st4" d="M113.42,240.97c7.89,1.63,15.77,3.32,23.67,4.87-.54-.04-1.63-.13-2.18-.17-.32,2.9.54,6.07-.49,8.8-3.4,1.92-7.72.49-11.49.93-3-.4-6.81,1.04-9.22-1.2-.64-4.34-.03-8.83-.29-13.23Z"/>
    <path class="st4" d="M150.81,248.75c7,1.71,14.44,2.72,21.44.4-.13,1.85.47,3.95-.61,5.6-1.7.94-3.73.57-5.58.67-4.34-.1-8.7.13-13.04-.11-3.34-.22-2.03-4.37-2.21-6.56Z"/>
  </g>
  <g id="_x23_365e7dff">
    <path class="st1" d="M157.09,192.05c4.15-.92,8.47-.92,12.63-.06,11.22,2.81,20.64,12.44,22.31,24,1.16,6.75-.08,13.9-3.56,19.82-3.54,6.24-9.48,10.95-16.22,13.34-7,2.32-14.44,1.31-21.44-.4-4.57-.98-9.16-1.88-13.72-2.91-7.9-1.55-15.78-3.24-23.67-4.87-4.23-.81-8.43-1.73-12.65-2.56-4.25-.72-8.35-2.27-12.68-2.45-1.69,1.25-.88,4.17-2.55,5.6-2.24,2.21-5.7,1.57-8.55,1.72-6-.04-12,.03-17.99-.06-3.26.11-6.36-2.81-6.01-6.14.04-10.71-.01-21.42.03-32.12-.39-3.36,2.72-6.31,6.02-6.11,7.64-.05,15.31-.2,22.94.05,3.55.24,5.12,3.87,5.44,6.95,4.25.33,8.36-1.26,12.48-2.1.43-2.63.42-5.31.43-7.97.55,2.6.61,5.27.76,7.92,5.63-1.39,11.35-2.33,17.02-3.55,4.66-1.02,9.33-2.01,14.02-2.93,8.29-1.87,16.67-3.37,24.96-5.17M153.7,207.19c-6.17,3.1-8.8,11.09-7.31,17.59,1.8,9.06,11.91,15.21,20.79,12.63,1.58-.69,4.08-.84,4.74-2.63.59-.29,1.77-.85,2.35-1.14,8.9-7.29,6.72-24.32-4.63-27.66l-.04-.6c-5.09-1.92-11.75-1.97-15.9,1.81Z"/>
    <path class="st1" d="M81,376.1c6.24-4.85,14.16-7.27,22.03-7.16,102.32.01,204.64-.04,306.95.02,13.62-.11,26.76,8.56,31.92,21.16,3.86,8.51,2.62,18.02,2.8,27.07.02,12.92,0,25.84,0,38.76,0,20.03.02,40.05-.02,60.07.07,10.29-4.65,20.5-12.64,27-5.23,4.49-11.87,6.83-18.58,7.98H98.61c-12.27-1.56-23.7-9.49-28.47-21.05-2.2-4.99-2.98-10.5-2.85-15.92.01-19.36,0-38.72,0-58.08-.01-12.94-.01-25.88.01-38.82.02-5.02-.1-10.05.06-15.07.42-10.1,5.55-19.88,13.64-25.96M108.18,399.04c.05,10.6.03,21.21.01,31.81,17.93.17,35.92-.26,53.81.21-18.51,21.59-37.11,43.1-55.56,64.73.12,8.39-.03,16.78.08,25.17,37.29-.06,74.59-.02,111.89-.01-.01-10.64.09-21.28-.05-31.91-19.45-.06-38.92.26-58.36-.16,18.54-21.4,36.93-42.92,55.38-64.38.5-8.39-.05-16.88.28-25.3-.4-.05-1.19-.15-1.58-.2-35.3.03-70.6-.06-105.9.04M230.33,399.17c.14,40.53.13,81.08,0,121.62,13.69.35,27.4.02,41.09.17.09-40.65.03-81.31.04-121.96-13.71.11-27.44-.22-41.14.17M291.27,399.11c.11,40.58.08,81.17.01,121.75,13.69.18,27.38,0,41.07.09.06-9.95.08-19.9-.01-29.85,9.18-.55,18.44.36,27.61-.74,10.51-1.17,21.06-4.48,29.49-11.04,18.69-14.04,21.24-43.78,7-61.8-7.47-9.41-18.93-14.87-30.56-17.02-10.48-2.07-21.22-1.37-31.83-1.5-14.26.07-28.53-.14-42.78.11Z"/>
    <path class="st1" d="M332.39,435c.15-1.44-.4-3.04.35-4.35,7.72.55,15.73-.98,23.21,1.5,10.89,3.68,10.91,22.04,0,25.74-7.52,2.49-15.58.98-23.34,1.52-.54-8.09-.07-16.28-.23-24.41Z"/>
  </g>
  <g id="_x23_7889a3ff">
    <path class="st8" d="M0,210.44l.03-.91c.99,11.44.03,22.99.5,34.47.22,4.03,1.81,7.82,3.78,11.29-1.02-.03-3.07-.08-4.09-.11-.06-.35-.17-1.05-.22-1.41v-43.33Z"/>
  </g>
  <g id="_x23_ccbf8aff">
    <path class="st5" d="M171.92,234.78c-.27-1.42,1.49-2.59,2.35-1.14-.58.29-1.76.85-2.35,1.14Z"/>
  </g>
  <g id="_x23_e6c968ff">
    <path class="st6" d="M.15,386.65c2.22,1.86,2.63,4.85,3.83,7.34,6.24,13.79,20.82,23.61,36.08,23.38,9.08-.2,18.17.24,27.24-.24-.02,12.94-.02,25.88-.01,38.82-9.78-.03-19.56.09-29.34-.06-8.55-.61-16.93-3.9-23.45-9.48C5.31,438.79-.04,426.92.1,415.01c.02-9.45-.06-18.91.05-28.36Z"/>
    <path class="st6" d="M508.89,391.84c.75-1.84,1.26-3.88,2.9-5.17.11,9.46.03,18.91.05,28.36-.01,9.77-3.42,19.59-9.93,26.94-7.36,8.69-18.59,13.84-29.95,13.97-9.08.03-18.17,0-27.25.01,0-12.92.01-25.84,0-38.76,9.43.37,18.87.1,28.3.11,15.72-.02,30.39-10.9,35.89-25.46Z"/>
  </g>
  <g id="_x23_ffffffff">
    <path class="st3" d="M108.18,399.04c35.3-.1,70.6-.01,105.9-.04.39.05,1.18.15,1.58.2-.33,8.42.22,16.91-.28,25.3-18.45,21.46-36.84,42.98-55.38,64.38,19.44.42,38.91.1,58.36.16.14,10.63.04,21.27.05,31.91-37.3-.01-74.6-.05-111.89.01-.11-8.39.04-16.78-.08-25.17,18.45-21.63,37.05-43.14,55.56-64.73-17.89-.47-35.88-.04-53.81-.21.02-10.6.04-21.21-.01-31.81Z"/>
    <path class="st3" d="M230.33,399.17c13.7-.39,27.43-.06,41.14-.17-.01,40.65.05,81.31-.04,121.96-13.69-.15-27.4.18-41.09-.17.12-40.54.13-81.09,0-121.62Z"/>
    <path class="st3" d="M291.27,399.11c14.25-.25,28.52-.04,42.78-.11,10.61.13,21.35-.57,31.83,1.5,11.63,2.15,23.09,7.61,30.56,17.02,14.24,18.02,11.69,47.76-7,61.8-8.43,6.56-18.98,9.87-29.49,11.04-9.17,1.1-18.43.19-27.61.74.09,9.95.07,19.9.01,29.85-13.69-.09-27.38.09-41.07-.09.07-40.58.1-81.17-.01-121.75M332.39,435c.16,8.13-.31,16.32.23,24.41,7.76-.54,15.82.97,23.34-1.52,10.9-3.7,10.88-22.06,0-25.74-7.48-2.48-15.49-.95-23.21-1.5-.75,1.31-.2,2.91-.35,4.35Z"/>
  </g>
</svg>